<!-- Generated by IcoMoon.io -->
<svg version="1.1" xmlns="http://www.w3.org/2000/svg" width="768" height="768" viewBox="0 0 768 768">
<title></title>
<g id="icomoon-ignore">
</g>
<path d="M384 640.5c141 0 256.5-115.5 256.5-256.5s-115.5-256.5-256.5-256.5-256.5 115.5-256.5 256.5 115.5 256.5 256.5 256.5zM384 64.5c177 0 319.5 142.5 319.5 319.5s-142.5 319.5-319.5 319.5-319.5-142.5-319.5-319.5 142.5-319.5 319.5-319.5zM466.5 256.5l45 45-82.5 82.5 82.5 82.5-45 45-82.5-82.5-82.5 82.5-45-45 82.5-82.5-82.5-82.5 45-45 82.5 82.5z"></path>
</svg>
