<!-- Generated by IcoMoon.io -->
<svg version="1.1" xmlns="http://www.w3.org/2000/svg" width="768" height="768" viewBox="0 0 768 768">
<title></title>
<g id="icomoon-ignore">
</g>
<path d="M480 592.5c52.5 0 99-19.5 135-51l57 57c-51 46.5-118.5 73.5-192 73.5-126 0-232.5-81-271.5-192h-112.5v-64.5h97.5c-1.5-10.5-1.5-21-1.5-31.5s0-21 1.5-31.5h-97.5v-64.5h112.5c39-111 145.5-192 271.5-192 73.5 0 141 27 192 73.5l-57 57c-36-31.5-84-51-135-51-79.5 0-150 46.5-184.5 112.5h184.5v64.5h-205.5c-1.5 10.5-3 21-3 31.5s1.5 21 3 31.5h205.5v64.5h-184.5c34.5 66 103.5 112.5 184.5 112.5z"></path>
</svg>
