<?xml version="1.0" encoding="utf-8"?>
<!-- Generator: Adobe Illustrator 20.0.0, SVG Export Plug-In . SVG Version: 6.00 Build 0)  -->
<svg version="1.1" id="Calque_1" xmlns="http://www.w3.org/2000/svg" xmlns:xlink="http://www.w3.org/1999/xlink" x="0px" y="0px"
	 viewBox="0 0 24 24" style="enable-background:new 0 0 24 24;" xml:space="preserve">
<title>person_add</title>
<g>
	<path d="M14.9,12c0.5,0.7,1.4,1.2,2.3,1.2c1.6,0,2.9-1.3,2.9-2.9s-1.3-2.9-2.9-2.9c-0.1,0-0.2,0-0.3,0C17,7.6,17,7.8,17,8
		C17,9.7,16.2,11.1,14.9,12z"/>
	<path d="M23,17.6c0-1.5-2.2-2.4-4.1-2.7c1.2,0.8,2.1,1.8,2.1,3.2v1h2V17.6z"/>
	<path d="M5.1,14.8C3.2,15.2,1,16.1,1,17.6V19h2v-1C3,16.7,3.8,15.6,5.1,14.8z"/>
	<path d="M7,8c0-0.2,0-0.4,0.1-0.5c-0.1,0-0.2,0-0.3,0c-1.6,0-2.9,1.3-2.9,2.9s1.3,2.9,2.9,2.9c0.9,0,1.8-0.5,2.3-1.2
		C7.8,11.1,7,9.7,7,8z"/>
	<path d="M16,7.7C15.8,5.7,14.1,4,12,4S8.2,5.7,8,7.7C8,7.8,8,7.9,8,8c0,1.3,0.6,2.4,1.5,3.1c0.7,0.5,1.5,0.9,2.5,0.9
		s1.8-0.3,2.5-0.9C15.4,10.4,16,9.3,16,8C16,7.9,16,7.8,16,7.7z"/>
	<path d="M16.3,14.7C14.8,14.2,13.2,14,12,14s-2.8,0.2-4.3,0.7C5.7,15.4,4,16.5,4,18v1v1h16v-1v-1C20,16.5,18.3,15.4,16.3,14.7z"/>
</g>
</svg>
