<?xml version="1.0" encoding="utf-8"?>
<!-- Generator: Adobe Illustrator 20.0.0, SVG Export Plug-In . SVG Version: 6.00 Build 0)  -->
<svg version="1.1" id="Calque_1" xmlns="http://www.w3.org/2000/svg" xmlns:xlink="http://www.w3.org/1999/xlink" x="0px" y="0px"
	 viewBox="0 0 24 24" style="enable-background:new 0 0 24 24;" xml:space="preserve">
<title>person_add</title>
<path d="M15,14c2.7,0,8,1.3,8,4v2H7v-2C7,15.3,12.3,14,15,14L15,14z M15,12c-2.2,0-4-1.8-4-4s1.8-4,4-4s4,1.8,4,4S17.2,12,15,12z"/>
<path d="M4,13c0-1.3,0.2-1.9,1.5-2.8c0.5-0.4,0.9-0.8,0.9-1.4c0-1.1-0.8-1.4-1.4-1.4c-1.3,0-1.4,1-1.5,1.6v0h-2
	c0-2.4,1.8-3.3,3.4-3.3c0.8,0,3.6,0.2,3.6,3c0,1.1-0.6,1.8-1.7,2.6C6.2,11.7,6,12,6,13H4z M6,16H4v-2h2V16z"/>
</svg>
