<!-- Generated by IcoMoon.io -->
<svg version="1.1" xmlns="http://www.w3.org/2000/svg" width="768" height="768" viewBox="0 0 768 768">
<title></title>
<g id="icomoon-ignore">
</g>
<path d="M384 496.5c61.5 0 112.5-51 112.5-112.5s-51-112.5-112.5-112.5-112.5 51-112.5 112.5 51 112.5 112.5 112.5zM622.5 415.5l67.5 52.5c6 4.5 7.5 13.5 3 21l-64.5 111c-4.5 7.5-12 9-19.5 6l-79.5-31.5c-16.5 12-34.5 24-54 31.5l-12 84c-1.5 7.5-7.5 13.5-15 13.5h-129c-7.5 0-13.5-6-15-13.5l-12-84c-19.5-7.5-37.5-18-54-31.5l-79.5 31.5c-7.5 3-15 1.5-19.5-6l-64.5-111c-4.5-7.5-3-16.5 3-21l67.5-52.5c-1.5-10.5-1.5-21-1.5-31.5s0-21 1.5-31.5l-67.5-52.5c-6-4.5-7.5-13.5-3-21l64.5-111c4.5-7.5 12-9 19.5-6l79.5 31.5c16.5-12 34.5-24 54-31.5l12-84c1.5-7.5 7.5-13.5 15-13.5h129c7.5 0 13.5 6 15 13.5l12 84c19.5 7.5 37.5 18 54 31.5l79.5-31.5c7.5-3 15-1.5 19.5 6l64.5 111c4.5 7.5 3 16.5-3 21l-67.5 52.5c1.5 10.5 1.5 21 1.5 31.5s0 21-1.5 31.5z"></path>
</svg>
