<?xml version="1.0" encoding="utf-8"?>
<!-- Generator: Adobe Illustrator 23.0.1, SVG Export Plug-In . SVG Version: 6.00 Build 0)  -->
<svg version="1.1" id="Calque_1" xmlns="http://www.w3.org/2000/svg" xmlns:xlink="http://www.w3.org/1999/xlink" x="0px" y="0px"
	 viewBox="0 0 50 50" style="enable-background:new 0 0 50 50;" xml:space="preserve">
<g>
	<circle style="enable-background:new    ;" cx="31" cy="37.5" r="2"/>
	<circle style="enable-background:new    ;" cx="25" cy="37.5" r="2"/>
	<polygon style="enable-background:new    ;" points="8.8,20.2 4.1,24.9 8.8,29.6 10.2,28.2 7,25 10.2,21.6 	"/>
	<circle style="enable-background:new    ;" cx="19" cy="37.5" r="2"/>
	<polygon style="enable-background:new    ;" points="39.8,21.8 43,25 39.8,28.2 41.2,29.6 45.9,25.1 41.2,20.4 	"/>
	<path style="enable-background:new    ;" d="M47,6.5H3c-1.7,0-3,1.3-3,3v31c0,1.7,1.3,3,3,3h44c1.7,0,3-1.3,3-3v-31
		C50,7.8,48.7,6.5,47,6.5z M49,40.5c0,1.1-0.9,2-2,2H3c-1.1,0-2-0.9-2-2v-31c0-1.1,0.9-2,2-2h44c1.1,0,2,0.9,2,2V40.5z"/>
</g>
</svg>
