<!-- Generated by IcoMoon.io -->
<svg version="1.1" xmlns="http://www.w3.org/2000/svg" width="768" height="768" viewBox="0 0 768 768">
<title></title>
<g id="icomoon-ignore">
</g>
<path d="M640.5 256.5v-129h-129v129h129zM640.5 448.5v-129h-129v129h129zM640.5 640.5v-129h-129v129h129zM448.5 256.5v-129h-129v129h129zM448.5 448.5v-129h-129v129h129zM448.5 640.5v-129h-129v129h129zM256.5 256.5v-129h-129v129h129zM256.5 448.5v-129h-129v129h129zM256.5 640.5v-129h-129v129h129zM640.5 64.5c34.5 0 63 28.5 63 63v513c0 34.5-28.5 63-63 63h-513c-34.5 0-63-28.5-63-63v-513c0-34.5 28.5-63 63-63h513z"></path>
</svg>
