<!-- Generated by IcoMoon.io -->
<svg version="1.1" xmlns="http://www.w3.org/2000/svg" width="768" height="768" viewBox="0 0 768 768">
<title></title>
<g id="icomoon-ignore">
</g>
<path d="M523.5 448.5h108c4.5-21 9-42 9-64.5s-4.5-43.5-9-64.5h-108c3 21 4.5 42 4.5 64.5s-1.5 43.5-4.5 64.5zM466.5 625.5c58.5-19.5 109.5-61.5 139.5-114h-94.5c-10.5 40.5-25.5 78-45 114zM459 448.5c3-21 4.5-42 4.5-64.5s-1.5-43.5-4.5-64.5h-150c-3 21-4.5 42-4.5 64.5s1.5 43.5 4.5 64.5h150zM384 639c27-39 48-81 61.5-127.5h-123c13.5 46.5 34.5 88.5 61.5 127.5zM256.5 256.5c10.5-40.5 25.5-78 45-114-58.5 19.5-109.5 61.5-139.5 114h94.5zM162 511.5c30 52.5 81 94.5 139.5 114-19.5-36-34.5-73.5-45-114h-94.5zM136.5 448.5h108c-3-21-4.5-42-4.5-64.5s1.5-43.5 4.5-64.5h-108c-4.5 21-9 42-9 64.5s4.5 43.5 9 64.5zM384 129c-27 39-48 81-61.5 127.5h123c-13.5-46.5-34.5-88.5-61.5-127.5zM606 256.5c-30-52.5-81-94.5-139.5-114 19.5 36 34.5 73.5 45 114h94.5zM384 64.5c177 0 319.5 142.5 319.5 319.5s-142.5 319.5-319.5 319.5-319.5-142.5-319.5-319.5 142.5-319.5 319.5-319.5z"></path>
</svg>
