<!-- Generated by IcoMoon.io -->
<svg version="1.1" xmlns="http://www.w3.org/2000/svg" width="768" height="768" viewBox="0 0 768 768">
<title></title>
<g id="icomoon-ignore">
</g>
<path d="M483 256.5v-64.5c0-54-45-99-99-99s-99 45-99 99v64.5h198zM384 544.5c34.5 0 64.5-30 64.5-64.5s-30-64.5-64.5-64.5-64.5 30-64.5 64.5 30 64.5 64.5 64.5zM576 256.5c34.5 0 64.5 28.5 64.5 63v321c0 34.5-30 63-64.5 63h-384c-34.5 0-64.5-28.5-64.5-63v-321c0-34.5 30-63 64.5-63h31.5v-64.5c0-88.5 72-160.5 160.5-160.5s160.5 72 160.5 160.5v64.5h31.5z"></path>
</svg>
