<svg class="u-hidden" xmlns="http://www.w3.org/2000/svg">
    <symbol id="cq-album" viewBox="0 0 20 20">
        <path d="M5 2h10v1H5zM3 4h14v1H3z" fill="currentColor"></path><path fill="none" stroke="currentColor" d="M1.5 6.5h17v11h-17z"></path>
    </symbol>
    <symbol id="cq-arrow-down" viewBox="0 0 20 20">
        <path d="M10.5 16.08l-4.87-5.42.74-.66 4.13 4.58L14.63 10l.74.66z" fill="currentColor"></path><path fill="none" stroke="currentColor" d="M10.5 4v11"></path>
    </symbol>
    <symbol id="cq-arrow-left" viewBox="0 0 20 20">
        <path fill="none" stroke="currentColor" d="M10 14L5 9.5 10 5m6 4.5L5 9.52"></path>
    </symbol>
    <symbol id="cq-arrow-right" viewBox="0 0 20 20">
        <path fill="none" stroke="currentColor" d="M10 5l5 4.5-5 4.5M4 9.5h11"></path>
    </symbol>
    <symbol id="cq-arrow-up" viewBox="0 0 20 20">
        <path d="M10.5 4l4.87 5.4-.74.68-4.13-4.59-4.13 4.59-.74-.68z" fill="currentColor"></path><path fill="none" stroke="currentColor" d="M10.5 16V5"></path>
    </symbol>
    <symbol id="cq-art-paint" viewBox="0 0 24 24">
        <path d="M18 3.984h3V12h-8.016v9a.96.96 0 0 1-.984.984H9.984A.96.96 0 0 1 9 21V9.984h9.984V6H18v.984c0 .563-.422 1.031-.984 1.031h-12a1.04 1.04 0 0 1-1.031-1.031V3c0-.563.469-.984 1.031-.984h12A.96.96 0 0 1 18 3v.984z" fill="currentColor"></path>
    </symbol>
    <symbol id="cq-art-palette" viewBox="0 0 24 24">
        <path d="M17.484 12c.844 0 1.5-.656 1.5-1.5s-.656-1.5-1.5-1.5-1.5.656-1.5 1.5.656 1.5 1.5 1.5zm-3-3.984c.844 0 1.5-.656 1.5-1.5s-.656-1.5-1.5-1.5-1.5.656-1.5 1.5.656 1.5 1.5 1.5zm-4.968 0c.844 0 1.5-.656 1.5-1.5s-.656-1.5-1.5-1.5-1.5.656-1.5 1.5.656 1.5 1.5 1.5zm-3 3.984c.844 0 1.5-.656 1.5-1.5S7.36 9 6.516 9s-1.5.656-1.5 1.5.656 1.5 1.5 1.5zM12 3c4.969 0 9 3.609 9 8.016 0 2.766-2.25 4.969-5.016 4.969H14.25c-.844 0-1.5.656-1.5 1.5 0 .375.141.703.375.984s.375.656.375 1.031c0 .844-.656 1.5-1.5 1.5-4.969 0-9-4.031-9-9s4.031-9 9-9z" fill="currentColor"></path>
    </symbol>
    <symbol id="cq-art-texture" viewBox="0 0 24 24">
        <path d="M9.281 21L21 9.281v2.859l-8.859 8.859H9.282zM21 18.984C21 20.061 20.061 21 18.984 21h-1.969l3.984-3.984v1.969zM5.016 3h1.969L3.001 6.984V5.015c0-1.078.938-2.016 2.016-2.016zm6.843 0h2.859L2.999 14.719V11.86zm7.641.094c.703.188 1.266.703 1.453 1.406L4.5 20.906A2.026 2.026 0 0 1 3.094 19.5z" fill="currentColor"></path>
    </symbol>
    <symbol id="cq-art-typo" viewBox="0 0 24 24">
        <path d="M9.609 12h4.781l-2.391-6.328zm1.407-9h1.969l5.484 14.016h-2.25l-1.078-3H8.86l-1.125 3h-2.25zM0 20.016h24V24H0v-3.984z" fill="currentColor"></path>
    </symbol>
    <symbol id="cq-bell" viewBox="0 0 20 20">
        <path fill="none" stroke="currentColor" stroke-width="1.1" d="M17 15.5H3c-.01-.89.79-2.16 1.1-2.99.48-1.21.62-2.16 1.09-5.5.35-2.48.7-3.81 2.09-4.85.85-.6 2.09-.66 2.53-.66h.15s1.66-.09 2.71.67c1.41 1.03 1.75 2.37 2.1 4.85.49 3.33.63 4.29 1.1 5.5.33.82 1.14 2.09 1.13 2.98z"></path><path fill="none" stroke="currentColor" d="M12.39 16c0 1.37-1.04 2.43-2.48 2.43-1.43 0-2.49-1.06-2.49-2.43"></path>
    </symbol>
    <symbol id="cq-block-image-image" viewBox="0 0 147.7 54.6">
        <circle cx="50.6" cy="13.1" r="3.9" fill="currentColor"></circle><path d="M1.5.5h65v52.7h-65V.5z" fill="none" stroke="currentColor" stroke-width="3"></path><path d="M11.9 37.4L26 23.3l17.6 17.6" fill="none" stroke="currentColor" stroke-width="3"></path><path d="M36.5 33.9l5.3-5.3 12.3 12.3" fill="none" stroke="currentColor" stroke-width="3"></path><circle cx="122.6" cy="13.1" r="3.9" fill="currentColor"></circle><path d="M73.5.5h65v52.7h-65V.5z" fill="none" stroke="currentColor" stroke-width="3"></path><path d="M83.9 37.4L98 23.3l17.6 17.6" fill="none" stroke="currentColor" stroke-width="3"></path><path d="M108.5 33.9l5.3-5.3 12.3 12.3" fill="none" stroke="currentColor" stroke-width="3"></path>
    </symbol>
    <symbol id="cq-block-image-texte" viewBox="0 0 147.7 54.6">
        <circle cx="45.6" cy="13.1" r="3.9" fill="currentColor"></circle><path d="M.5.5h57v52.7H.5V.5z" fill="none" stroke="currentColor" stroke-width="3"></path><path d="M6.9 37.4L21 23.3l17.6 17.6" fill="none" stroke="currentColor" stroke-width="3"></path><path d="M31.5 33.9l5.3-5.3 12.3 12.3" fill="none" stroke="currentColor" stroke-width="3"></path><path d="M71.7 1.2c21-.1 43-.1 64.3 0M71.7 14.3c21 .2 43 .2 64.3 0M71.7 27.4c21 .5 43 .5 64.3 0M71.7 40.9c16-.2 32-.2 48-.1m-48 13.3h76" fill="none" stroke="currentColor" stroke-width="3" stroke-linecap="round"></path>
    </symbol>
    <symbol id="cq-block-texte-image" viewBox="0 0 147.7 54.6">
        <ellipse cx="133.8" cy="13.9" rx="3.9" ry="3.8" fill="currentColor"></ellipse><path d="M88.7 1.5h57v51.7h-57V1.5z" fill="none" stroke="currentColor" stroke-width="3"></path><path d="M95.1 37.7l14.1-13.8 17.6 17.3" fill="none" stroke="currentColor" stroke-width="3"></path><path d="M119.7 34.3l5.3-5.2 12.3 12.1" fill="none" stroke="currentColor" stroke-width="3"></path><path d="M0 1.8c19.4-.1 39.8-.1 59.5 0M0 14.4c19.4.2 39.8.2 59.5 0M0 52.9h60.1M0 27.3h60.1M0 40.1h60.1" fill="none" stroke="currentColor" stroke-width="3" stroke-linecap="square"></path>
    </symbol>
    <symbol id="cq-block-texte-texte" viewBox="0 0 147.7 54.6">
        <path d="M81.7 1.2c21-.1 43-.1 64.3 0M81.7 14.3c21 .2 43 .2 64.3 0M81.7 27.4c21 .5 43 .5 64.3 0M81.7 40.9c16-.2 32-.2 48-.1M1.4 1.2c21-.1 43-.1 64.3 0M1.4 40.8c21 .2 43 .2 64.3 0M1.4 54.5c21 .2 43 .2 64.3 0M1.4 27.4c21 .5 43 .5 64.3 0M1.4 14.1c21 .5 43 .5 64.3 0" fill="none" stroke="currentColor" stroke-width="3" stroke-linecap="round"></path>
    </symbol>
    <symbol id="cq-block" viewBox="0 0 24 24">
        <path d="M12 20.016c4.406 0 8.016-3.609 8.016-8.016 0-1.828-.609-3.563-1.688-4.922l-11.25 11.25c1.359 1.078 3.094 1.688 4.922 1.688zM3.984 12c0 1.828.609 3.563 1.688 4.922l11.25-11.25C15.563 4.594 13.828 3.984 12 3.984c-4.406 0-8.016 3.609-8.016 8.016zM12 2.016c5.531 0 9.984 4.453 9.984 9.984S17.531 21.984 12 21.984 2.016 17.531 2.016 12 6.469 2.016 12 2.016z" fill="currentColor"></path>
    </symbol>
    <symbol id="cq-bold" viewBox="0 0 20 20">
        <path d="M5 15.3c.66 0 .9-.3.9-.77V5.5c0-.58-.34-.8-.9-.8V4h3.95c3.65 0 4.75 1.37 4.75 2.9 0 .97-.56 2.27-2.84 2.69v.11c2.39.16 3.43 1.58 3.44 2.84C14.3 14.47 12.94 16 9 16H5v-.7zm4-6c2.19 0 2.8-.8 2.85-2.3 0-1.35-.55-2.2-2.85-2.2H7.67v4.5H9zm.185 5.92C11.97 15 12.39 14 12.4 12.58 12.4 11.15 11.39 10 9 10H7.67v5h1.51z" fill="currentColor"></path>
    </symbol>
    <symbol id="cq-bolt" viewBox="0 0 20 20">
        <path d="M4.74 20l2.99-8H3L15.43 1l-3.11 8h4.7L4.74 20zm4.44-9L7.1 16.39 14.47 10h-3.61l2.13-5.33L5.61 11h3.57z" fill="currentColor"></path>
    </symbol>
    <symbol id="cq-bookmark" viewBox="0 0 20 20">
        <path fill="none" stroke="currentColor" d="M5.5 1.5h10v16l-5-5-5 5z"></path>
    </symbol>
    <symbol id="cq-bug-report" viewBox="0 0 24 24">
        <path d="M14.016 12V9.984H9.985V12h4.031zm0 3.984v-1.969H9.985v1.969h4.031zm6-7.968v1.969h-2.109c.047.328.094.703.094 1.031V12h2.016v2.016h-2.016V15c0 .328-.047.656-.094.984h2.109V18h-2.813c-1.031 1.781-3 3-5.203 3s-4.172-1.219-5.203-3H3.984v-2.016h2.109A6.97 6.97 0 0 1 5.999 15v-.984H3.983V12h2.016v-.984c0-.328.047-.703.094-1.031H3.984V8.016h2.813a6.133 6.133 0 0 1 1.828-1.969L6.984 4.406 8.39 3l2.203 2.156a7.141 7.141 0 0 1 2.812 0L15.608 3l1.406 1.406-1.641 1.641a6.133 6.133 0 0 1 1.828 1.969h2.813z" fill="currentColor"></path>
    </symbol>
    <symbol id="cq-calendar" viewBox="0 0 20 20">
        <path d="M2 3v14h16V3H2zm15 13H3V8h14v8zm0-9H3V4h14v3z" fill="currentColor"></path><path d="M6 2h1v3H6zm7 0h1v3h-1z" fill="currentColor"></path>
    </symbol>
    <symbol id="cq-camera" viewBox="0 0 20 20">
        <circle fill="none" stroke="currentColor" stroke-width="1.1" cx="10" cy="10.8" r="3.8"></circle><path fill="none" stroke="currentColor" d="M1 4.5c-.3 0-.5.2-.5.5v12c0 .3.2.5.5.5h18c.3 0 .5-.2.5-.5V5c0-.3-.2-.5-.5-.5h-5.5V2.9c0-.3-.2-.4-.5-.4H7c-.3 0-.5.1-.5.4v1.6H1z"></path>
    </symbol>
    <symbol id="cq-cards" viewBox="0 0 100 100">
        <circle cx="37.8" cy="23.2" r="2.4" fill="currentColor"></circle><path fill="none" stroke="currentColor" d="M3 16h41.7v32.5H3z"></path><path fill="none" stroke="currentColor" stroke-width="1.01" d="M11.2 38.4l8.8-8.8 11 11"></path><path fill="none" stroke="currentColor" stroke-width="1.01" d="M26.6 36.2l3.3-3.3 7.7 7.7"></path><path d="M34.1 56.1H5.9c-.5-.5-.9-.9-.9-1.4s.4-.9.9-.8h28.2c.5-.1.9.3.9.8s-.4.9-.9 1.4zm-7.5 5.6H5.9c-.5-.5-.9-.9-.9-1.4s.4-.9.9-.8h20.7c.5-.1.9.3.9.8s-.4.9-.9 1.4zm7.5 5.6H5.9c-.5-.4-.9-.8-.9-1.4s.4-.9.9-.8h28.2c.5-.1.9.3.9.8s-.4 1-.9 1.4zM26.6 73H5.9c-.5-.5-.9-.9-.9-1.4 0-.5.4-.9.9-.9h20.7c.5-.1.9.3.9.9 0 .5-.4.9-.9 1.4zm7.5 5.6H5.9c-.5-.4-.9-.9-.9-1.4 0-.5.4-.9.9-.9h28.2c.5-.1.9.4.9.9s-.4 1-.9 1.4z" fill="currentColor"></path><path fill="none" stroke="currentColor" stroke-miterlimit="10" d="M3 48.5h41.7V84H3z"></path><circle cx="90.1" cy="23.2" r="2.4" fill="currentColor"></circle><path fill="none" stroke="currentColor" d="M55.3 16H97v32.5H55.3z"></path><path fill="none" stroke="currentColor" stroke-width="1.01" d="M63.4 38.4l8.8-8.8 11 11"></path><path fill="none" stroke="currentColor" stroke-width="1.01" d="M78.8 36.2l3.3-3.3 7.7 7.7"></path><path d="M86.4 56.1H58.2c-.5-.5-.9-.9-.9-1.4s.4-.9.9-.8h28.2c.5-.1.9.3.9.8s-.4.9-.9 1.4zm-7.6 5.6H58.2c-.5-.5-.9-.9-.9-1.4s.4-.9.9-.8h20.7c.5-.1.9.3.9.8s-.4.9-1 1.4zm7.6 5.6H58.2c-.5-.5-.9-.9-.9-1.4s.4-.9.9-.8h28.2c.5-.1.9.3.9.8s-.4 1-.9 1.4zM78.8 73H58.2c-.5-.4-.9-.9-.9-1.4 0-.5.4-.9.9-.9h20.7c.5-.1.9.3.9.9 0 .5-.4.9-1 1.4zm7.6 5.6H58.2c-.5-.4-.9-.9-.9-1.4 0-.5.4-.9.9-.9h28.2c.5-.1.9.4.9.9s-.4 1-.9 1.4z" fill="currentColor"></path><path fill="none" stroke="currentColor" stroke-miterlimit="10" d="M55.3 48.5H97V84H55.3z"></path>
    </symbol>
    <symbol id="cq-cart" viewBox="0 0 20 20">
        <circle cx="7.3" cy="17.3" r="1.4" fill="currentColor"></circle><circle cx="13.3" cy="17.3" r="1.4" fill="currentColor"></circle><path fill="none" stroke="currentColor" d="M0 2l3.2 2 2.1 8.5H16l2-6H8"></path>
    </symbol>
    <symbol id="cq-chart-bar" viewBox="0 0 512 448">
        <path d="M160 224v128H96V224h64zm96-128v256h-64V96h64zm256 288v32H0V32h32v352h480zM352 160v192h-64V160h64zm96-96v288h-64V64h64z" fill="currentColor"></path>
    </symbol>
    <symbol id="cq-chart-pie" viewBox="0 0 432 448">
        <path d="M192 222.5L328.5 359c-34.75 35.25-83.25 57-136.5 57C86 416 0 330 0 224S86 32 192 32v190.5zm46.75 1.5H432c0 53.25-21.75 101.75-57 136.5zM416 192H224V0c106 0 192 86 192 192z" fill="currentColor"></path>
    </symbol>
    <symbol id="cq-check-box-checked" viewBox="0 0 24 24">
        <path d="M9.984 17.016l9-9-1.406-1.453-7.594 7.594-3.563-3.563L5.015 12zm9-14.016C20.109 3 21 3.938 21 5.016v13.969c0 1.078-.891 2.016-2.016 2.016H5.015c-1.125 0-2.016-.938-2.016-2.016V5.016C2.999 3.938 3.89 3 5.015 3h13.969z" fill="currentColor"></path>
    </symbol>
    <symbol id="cq-check-box" viewBox="0 0 24 24">
        <path d="M18.984 3C20.062 3 21 3.938 21 5.016v13.969c0 1.078-.938 2.016-2.016 2.016H5.015c-1.078 0-2.016-.938-2.016-2.016V5.016C2.999 3.938 3.937 3 5.015 3h13.969zm0 2.016H5.015v13.969h13.969V5.016z" fill="currentColor"></path>
    </symbol>
    <symbol id="cq-check-lock-checked" viewBox="0 0 512 512">
        <path d="M296 224h-8v-96c0-52.935-43.065-96-96-96h-64c-52.935 0-96 43.065-96 96v96h-8c-13.2 0-24 10.8-24 24v240c0 13.2 10.8 24 24 24h272c13.2 0 24-10.8 24-24V248c0-13.2-10.8-24-24-24zM96 128c0-17.645 14.355-32 32-32h64c17.645 0 32 14.355 32 32v96H96v-96z" fill="currentColor"></path>
    </symbol>
    <symbol id="cq-check-lock" viewBox="0 0 512 512">
        <path d="M384 32c52.935 0 96 43.065 96 96v96h-64v-96c0-17.645-14.355-32-32-32h-64c-17.645 0-32 14.355-32 32v96h8c13.2 0 24 10.8 24 24v240c0 13.2-10.8 24-24 24H24c-13.2 0-24-10.8-24-24V248c0-13.2 10.8-24 24-24h200v-96c0-52.935 43.065-96 96-96h64z" fill="currentColor"></path>
    </symbol>
    <symbol id="cq-check-radio-checked" viewBox="0 0 24 24">
        <path d="M12 20.016c4.406 0 8.016-3.609 8.016-8.016S16.407 3.984 12 3.984 3.984 7.593 3.984 12 7.593 20.016 12 20.016zm0-18c5.531 0 9.984 4.453 9.984 9.984S17.531 21.984 12 21.984 2.016 17.531 2.016 12 6.469 2.016 12 2.016zm0 4.968c2.766 0 5.016 2.25 5.016 5.016s-2.25 5.016-5.016 5.016S6.984 14.766 6.984 12 9.234 6.984 12 6.984z" fill="currentColor"></path>
    </symbol>
    <symbol id="cq-check-radio" viewBox="0 0 24 24">
        <path d="M12 20.016c4.406 0 8.016-3.609 8.016-8.016S16.407 3.984 12 3.984 3.984 7.593 3.984 12 7.593 20.016 12 20.016zm0-18c5.531 0 9.984 4.453 9.984 9.984S17.531 21.984 12 21.984 2.016 17.531 2.016 12 6.469 2.016 12 2.016z" fill="currentColor"></path>
    </symbol>
    <symbol id="cq-check" viewBox="0 0 20 20">
        <path fill="none" stroke="currentColor" stroke-width="1.1" d="M4 10l4 5 9-11"></path>
    </symbol>
    <symbol id="cq-chevron-down" viewBox="0 0 20 20">
        <path fill="none" stroke="currentColor" stroke-width="1.03" d="M16 7l-6 6-6-6"></path>
    </symbol>
    <symbol id="cq-chevron-left" viewBox="0 0 20 20">
        <path fill="none" stroke="currentColor" stroke-width="1.03" d="M13 16l-6-6 6-6"></path>
    </symbol>
    <symbol id="cq-chevron-right" viewBox="0 0 20 20">
        <path fill="none" stroke="currentColor" stroke-width="1.03" d="M7 4l6 6-6 6"></path>
    </symbol>
    <symbol id="cq-chevron-up" viewBox="0 0 20 20">
        <path fill="none" stroke="currentColor" stroke-width="1.03" d="M4 13l6-6 6 6"></path>
    </symbol>
    <symbol id="cq-circle-close" viewBox="0 0 768 768">
        <path d="M384 640.5c141 0 256.5-115.5 256.5-256.5S525 127.5 384 127.5 127.5 243 127.5 384 243 640.5 384 640.5zm0-576C561 64.5 703.5 207 703.5 384S561 703.5 384 703.5 64.5 561 64.5 384 207 64.5 384 64.5zm82.5 192l45 45L429 384l82.5 82.5-45 45L384 429l-82.5 82.5-45-45L339 384l-82.5-82.5 45-45L384 339z" fill="currentColor"></path>
    </symbol>
    <symbol id="cq-circle-error" viewBox="0 0 24 24">
        <path d="M12 20.016c4.406 0 8.016-3.609 8.016-8.016S16.407 3.984 12 3.984 3.984 7.593 3.984 12 7.593 20.016 12 20.016zm0-18c5.531 0 9.984 4.453 9.984 9.984S17.531 21.984 12 21.984 2.016 17.531 2.016 12 6.469 2.016 12 2.016zm-.984 4.968h1.969v6h-1.969v-6zm0 8.016h1.969v2.016h-1.969V15z" fill="currentColor"></path>
    </symbol>
    <symbol id="cq-circle-filled-close" viewBox="0 0 24 24">
        <path d="M17.016 15.609L13.407 12l3.609-3.609-1.406-1.406-3.609 3.609-3.609-3.609-1.406 1.406L10.595 12l-3.609 3.609 1.406 1.406 3.609-3.609 3.609 3.609zM12 2.016c5.531 0 9.984 4.453 9.984 9.984S17.531 21.984 12 21.984 2.016 17.531 2.016 12 6.469 2.016 12 2.016z" fill="currentColor"></path>
    </symbol>
    <symbol id="cq-circle-filled-error" viewBox="0 0 24 24">
        <path d="M12.984 12.984v-6h-1.969v6h1.969zm0 4.032V15h-1.969v2.016h1.969zm-.984-15c5.531 0 9.984 4.453 9.984 9.984S17.531 21.984 12 21.984 2.016 17.531 2.016 12 6.469 2.016 12 2.016z" fill="currentColor"></path>
    </symbol>
    <symbol id="cq-circle-filled-info" viewBox="0 0 768 768">
        <path d="M415.5 288v-64.5h-63V288h63zm0 256.5v-192h-63v192h63zM384 64.5C561 64.5 703.5 207 703.5 384S561 703.5 384 703.5 64.5 561 64.5 384 207 64.5 384 64.5z" fill="currentColor"></path>
    </symbol>
    <symbol id="cq-circle-filled-pause" viewBox="0 0 24 24">
        <path d="M15 15.984V8.015h-2.016v7.969H15zm-3.984 0V8.015H9v7.969h2.016zM12 2.016c5.531 0 9.984 4.453 9.984 9.984S17.531 21.984 12 21.984 2.016 17.531 2.016 12 6.469 2.016 12 2.016z" fill="currentColor"></path>
    </symbol>
    <symbol id="cq-circle-filled-play" viewBox="0 0 24 24">
        <path d="M9.984 16.5l6-4.5-6-4.5v9zM12 2.016c5.531 0 9.984 4.453 9.984 9.984S17.531 21.984 12 21.984 2.016 17.531 2.016 12 6.469 2.016 12 2.016z" fill="currentColor"></path>
    </symbol>
    <symbol id="cq-circle-filled-plus" viewBox="0 0 768 768">
        <path d="M544.5 415.5v-63h-129v-129h-63v129h-129v63h129v129h63v-129h129zM384 64.5C561 64.5 703.5 207 703.5 384S561 703.5 384 703.5 64.5 561 64.5 384 207 64.5 384 64.5z" fill="currentColor"></path>
    </symbol>
    <symbol id="cq-circle-filled-question" viewBox="0 0 768 768">
        <path d="M481.5 360c18-18 30-43.5 30-72 0-70.5-57-127.5-127.5-127.5s-127.5 57-127.5 127.5h63c0-34.5 30-64.5 64.5-64.5s64.5 30 64.5 64.5c0 18-7.5 33-19.5 45l-39 40.5c-22.5 24-37.5 55.5-37.5 90V480h63c0-48 15-66 37.5-90zm-66 247.5v-63h-63v63h63zM384 64.5C561 64.5 703.5 207 703.5 384S561 703.5 384 703.5 64.5 561 64.5 384 207 64.5 384 64.5z" fill="currentColor"></path>
    </symbol>
    <symbol id="cq-circle-info" viewBox="0 0 768 768">
        <path d="M352.5 288v-64.5h63V288h-63zM384 640.5c141 0 256.5-115.5 256.5-256.5S525 127.5 384 127.5 127.5 243 127.5 384 243 640.5 384 640.5zm0-576C561 64.5 703.5 207 703.5 384S561 703.5 384 703.5 64.5 561 64.5 384 207 64.5 384 64.5zm-31.5 480v-192h63v192h-63z" fill="currentColor"></path>
    </symbol>
    <symbol id="cq-circle-pause" viewBox="0 0 24 24">
        <path d="M12.984 15.984V8.015H15v7.969h-2.016zM12 20.016c4.406 0 8.016-3.609 8.016-8.016S16.407 3.984 12 3.984 3.984 7.593 3.984 12 7.593 20.016 12 20.016zm0-18c5.531 0 9.984 4.453 9.984 9.984S17.531 21.984 12 21.984 2.016 17.531 2.016 12 6.469 2.016 12 2.016zM9 15.984V8.015h2.016v7.969H9z" fill="currentColor"></path>
    </symbol>
    <symbol id="cq-circle-play" viewBox="0 0 24 24">
        <path d="M12 20.016c4.406 0 8.016-3.609 8.016-8.016S16.407 3.984 12 3.984 3.984 7.593 3.984 12 7.593 20.016 12 20.016zm0-18c5.531 0 9.984 4.453 9.984 9.984S17.531 21.984 12 21.984 2.016 17.531 2.016 12 6.469 2.016 12 2.016zM9.984 16.5v-9l6 4.5z" fill="currentColor"></path>
    </symbol>
    <symbol id="cq-circle-plus" viewBox="0 0 768 768">
        <path d="M384 640.5c141 0 256.5-115.5 256.5-256.5S525 127.5 384 127.5 127.5 243 127.5 384 243 640.5 384 640.5zm0-576C561 64.5 703.5 207 703.5 384S561 703.5 384 703.5 64.5 561 64.5 384 207 64.5 384 64.5zm31.5 159v129h129v63h-129v129h-63v-129h-129v-63h129v-129h63z" fill="currentColor"></path>
    </symbol>
    <symbol id="cq-circle-question" viewBox="0 0 768 768">
        <path d="M384 192c70.5 0 127.5 57 127.5 127.5 0 79.5-96 88.5-96 160.5h-63c0-103.5 96-96 96-160.5 0-34.5-30-63-64.5-63s-64.5 28.5-64.5 63h-63c0-70.5 57-127.5 127.5-127.5zm0 448.5c141 0 256.5-115.5 256.5-256.5S525 127.5 384 127.5 127.5 243 127.5 384 243 640.5 384 640.5zm0-576C561 64.5 703.5 207 703.5 384S561 703.5 384 703.5 64.5 561 64.5 384 207 64.5 384 64.5zM352.5 576v-64.5h63V576h-63z" fill="currentColor"></path>
    </symbol>
    <symbol id="cq-clock" viewBox="0 0 20 20">
        <circle fill="none" stroke="currentColor" stroke-width="1.1" cx="10" cy="10" r="9"></circle><path d="M9 4h1v7H9z" fill="currentColor"></path><path fill="none" stroke="currentColor" stroke-width="1.1" d="M13.018 14.197l-3.573-3.572"></path>
    </symbol>
    <symbol id="cq-close" viewBox="0 0 20 20">
        <path fill="none" stroke="currentColor" stroke-width="1.06" d="M16 16L4 4m12 0L4 16"></path>
    </symbol>
    <symbol id="cq-cloud-download" viewBox="0 0 20 20">
        <path fill="none" stroke="currentColor" stroke-width="1.1" d="M6.5 14.61H3.75C1.96 14.61.5 13.17.5 11.39c0-1.63 1.22-2.98 2.8-3.19C3.38 5.31 5.75 3 8.68 3c2.51 0 4.63 1.71 5.21 4.02.5-.22 1.04-.34 1.61-.34 2.21 0 4 1.77 4 3.96s-1.79 3.96-4 3.96h-3"></path><path fill="none" stroke="currentColor" d="M11.75 16L9.5 18.25 7.25 16m2.25 2V9.5"></path>
    </symbol>
    <symbol id="cq-cloud-upload" viewBox="0 0 20 20">
        <path fill="none" stroke="currentColor" stroke-width="1.1" d="M6.5 14.61H3.75C1.96 14.61.5 13.17.5 11.39c0-1.63 1.22-2.98 2.81-3.19C3.38 5.31 5.75 3 8.68 3c2.51 0 4.63 1.71 5.21 4.02.5-.22 1.04-.34 1.61-.34 2.21 0 4 1.77 4 3.96s-1.79 3.96-4 3.96h-3"></path><path fill="none" stroke="currentColor" d="M7.25 11.75L9.5 9.5l2.25 2.25M9.5 18V9.5"></path>
    </symbol>
    <symbol id="cq-code" viewBox="0 0 24 24">
        <path d="M14.578 16.594L19.219 12l-4.641-4.594L15.984 6l6 6-6 6zm-5.156 0L8.016 18l-6-6 6-6 1.406 1.406L4.781 12z" fill="currentColor"></path>
    </symbol>
    <symbol id="cq-cog" viewBox="0 0 768 768">
        <path d="M384 496.5c61.5 0 112.5-51 112.5-112.5s-51-112.5-112.5-112.5-112.5 51-112.5 112.5 51 112.5 112.5 112.5zm238.5-81L690 468c6 4.5 7.5 13.5 3 21l-64.5 111c-4.5 7.5-12 9-19.5 6l-79.5-31.5c-16.5 12-34.5 24-54 31.5l-12 84c-1.5 7.5-7.5 13.5-15 13.5h-129c-7.5 0-13.5-6-15-13.5l-12-84c-19.5-7.5-37.5-18-54-31.5L159 606c-7.5 3-15 1.5-19.5-6L75 489c-4.5-7.5-3-16.5 3-21l67.5-52.5c-1.5-10.5-1.5-21-1.5-31.5s0-21 1.5-31.5L78 300c-6-4.5-7.5-13.5-3-21l64.5-111c4.5-7.5 12-9 19.5-6l79.5 31.5c16.5-12 34.5-24 54-31.5l12-84c1.5-7.5 7.5-13.5 15-13.5h129c7.5 0 13.5 6 15 13.5l12 84c19.5 7.5 37.5 18 54 31.5L609 162c7.5-3 15-1.5 19.5 6L693 279c4.5 7.5 3 16.5-3 21l-67.5 52.5c1.5 10.5 1.5 21 1.5 31.5s0 21-1.5 31.5z" fill="currentColor"></path>
    </symbol>
    <symbol id="cq-comment" viewBox="0 0 20 20">
        <path d="M6 18.71V14H1V1h18v13h-8.29L6 18.71zM2 13h5v3.29L10.29 13H18V2H2v11z" fill="currentColor"></path>
    </symbol>
    <symbol id="cq-commenting" viewBox="0 0 20 20">
        <path fill="none" stroke="currentColor" d="M1.5 1.5h17v12h-8l-4 4v-4h-5z"></path><circle cx="10" cy="8" r="1" fill="currentColor"></circle><circle cx="6" cy="8" r="1" fill="currentColor"></circle><circle cx="14" cy="8" r="1" fill="currentColor"></circle>
    </symbol>
    <symbol id="cq-comments" viewBox="0 0 20 20">
        <path fill="none" stroke="currentColor" d="M2 .5h17.5V13"></path><path d="M5 19.71V15H0V2h18v13H9.71L5 19.71zM1 14h5v3.29L9.29 14H17V3H1v11z" fill="currentColor"></path>
    </symbol>
    <symbol id="cq-copy" viewBox="0 0 20 20">
        <path fill="none" stroke="currentColor" d="M3.5 2.5h12v16h-12z"></path><path fill="none" stroke="currentColor" d="M5 .5h12.5V17"></path>
    </symbol>
    <symbol id="cq-credit-card" viewBox="0 0 20 20">
        <path fill="none" stroke="currentColor" d="M1.5 4.5h17v12h-17z"></path><path d="M1 7h18v3H1z" fill="currentColor"></path>
    </symbol>
    <symbol id="cq-database" viewBox="0 0 20 20">
        <ellipse fill="none" stroke="currentColor" cx="10" cy="4.64" rx="7.5" ry="3.14"></ellipse><path fill="none" stroke="currentColor" d="M17.5 8.11c0 1.74-3.36 3.14-7.5 3.14-4.14 0-7.5-1.41-7.5-3.14m15 3.14c0 1.74-3.36 3.14-7.5 3.14-4.14 0-7.5-1.41-7.5-3.14"></path><path fill="none" stroke="currentColor" d="M17.49 4.64l.01 9.72c0 1.74-3.36 3.14-7.5 3.14-4.14 0-7.5-1.41-7.5-3.14V4.64"></path>
    </symbol>
    <symbol id="cq-device-desktop" viewBox="0 0 20 20">
        <path d="M8 15h1v2H8zm3 0h1v2h-1z" fill="currentColor"></path><path d="M5 16h10v1H5z" fill="currentColor"></path><path fill="none" stroke="currentColor" d="M1.5 3.5h17v11h-17z"></path>
    </symbol>
    <symbol id="cq-device-laptop" viewBox="0 0 20 20">
        <path d="M0 16h20v1H0z" fill="currentColor"></path><path fill="none" stroke="currentColor" d="M2.5 4.5h15v10h-15z"></path>
    </symbol>
    <symbol id="cq-device-server" viewBox="0 0 20 20">
        <path d="M3 3h1v2H3zm2 0h1v2H5zm2 0h1v2H7zm9 0h1v1h-1zm0 7h1v1h-1z" fill="currentColor"></path><circle fill="none" stroke="currentColor" cx="9.9" cy="17.4" r="1.4"></circle><path d="M3 10h1v2H3zm2 0h1v2H5zm4.5 4h1v2h-1zM3 17h6v1H3zm8 0h6v1h-6z" fill="currentColor"></path><path fill="none" stroke="currentColor" d="M1.5 1.5h17v5h-17zm0 7h17v5h-17z"></path>
    </symbol>
    <symbol id="cq-device-tablet-landscape" viewBox="0 0 20 20">
        <path fill="none" stroke="currentColor" d="M1.5 5c0-.8.7-1.5 1.5-1.5h14c.8 0 1.5.7 1.5 1.5v11c0 .8-.7 1.5-1.5 1.5H3c-.8 0-1.5-.7-1.5-1.5V5z"></path><circle cx="3.7" cy="10.5" r=".8" fill="currentColor"></circle>
    </symbol>
    <symbol id="cq-device-tablet" viewBox="0 0 20 20">
        <path fill="none" stroke="currentColor" d="M5 18.5c-.8 0-1.5-.7-1.5-1.5V3c0-.8.7-1.5 1.5-1.5h11c.8 0 1.5.7 1.5 1.5v14c0 .8-.7 1.5-1.5 1.5H5z"></path><circle cx="10.5" cy="16.3" r=".8" fill="currentColor"></circle>
    </symbol>
    <symbol id="cq-device-terminal" viewBox="0 0 32 32">
        <path d="M0 2v28h32V2H0zm30 26H2V4h28v24zM28 6H4v20h24V6zM14 16h-2v2h-2v2H8v-2h2v-2h2v-2h-2v-2H8v-2h2v2h2v2h2v2zm8 4h-6v-2h6v2z" fill="currentColor"></path>
    </symbol>
    <symbol id="cq-download" viewBox="0 0 20 20">
        <path fill="none" stroke="currentColor" d="M14 10l-4.5 4.5L5 10"></path><path d="M3 17h13v1H3z" fill="currentColor"></path><path fill="none" stroke="currentColor" d="M9.5 13.91V3"></path>
    </symbol>
    <symbol id="cq-edit" viewBox="0 0 768 768">
        <path d="M663 225l-58.5 58.5-120-120L543 105c12-12 33-12 45 0l75 75c12 12 12 33 0 45zM96 552l354-354 120 120-354 354H96V552z" fill="currentColor"></path>
    </symbol>
    <symbol id="cq-expand" viewBox="0 0 20 20">
        <path d="M13 2h5v5h-1V3h-4zM2 13h1v4h4v1H2z" fill="currentColor"></path><path fill="none" stroke="currentColor" stroke-width="1.1" d="M11 9l6-6M3 17l6-6"></path>
    </symbol>
    <symbol id="cq-file-edit" viewBox="0 0 20 20">
        <path fill="none" stroke="currentColor" d="M18.65 1.68c-.24-.23-.541-.35-.84-.35-.311 0-.601.12-.83.35L8.92 9.76 8 12.33l2.55-.92 8.101-8.07c.469-.47.469-1.19-.001-1.66z"></path><path fill="none" stroke="currentColor" d="M16.5 8.482V18.5h-13v-17h10.711"></path>
    </symbol>
    <symbol id="cq-file" viewBox="0 0 20 20">
        <path fill="none" stroke="currentColor" d="M3.5 1.5h13v17h-13z"></path>
    </symbol>
    <symbol id="cq-folder" viewBox="0 0 20 20">
        <path fill="none" stroke="currentColor" d="M9.5 5.5l-1-2h-7v13h17v-11z"></path>
    </symbol>
    <symbol id="cq-forward" viewBox="0 0 20 20">
        <path d="M2.47 13.11c1.55-3.09 3.8-5.26 6.57-6.5.44-.2 1.23-.48 1.96-.7V2l7.89 7L11 16v-3.87c-1.75.34-3.42 1.06-4.98 2.12-2.99 2.03-4.39 4.29-4.39 4.29s-.25-3.26.84-5.43zm2.83.42c1.62-1.13 3.74-2.13 6.7-2.61v2.71L17.36 9 12 4.25V6.8c-.29.06-1.14.22-2.33.69-2.88 1.16-5.09 3.47-6.18 5.59-.31.62-.81 1.79-1 2.92.79-.95 1.91-1.85 2.81-2.47z" fill="currentColor"></path>
    </symbol>
    <symbol id="cq-future" viewBox="0 0 20 20">
        <path d="M19 2h-1v4h-4v1h5V2" fill="currentColor"></path><path fill="none" stroke="currentColor" stroke-width="1.1" d="M18 6.548C16.709 3.29 13.354 1 9.6 1c-5 0-9 4-9 9s4 9 9 9 9-4 9-9"></path><path d="M9 4h1v7H9z" fill="currentColor"></path><path d="M13.018 14.197l-3.573-3.572" fill="none" stroke="currentColor" stroke-width="1.1"></path>
    </symbol>
    <symbol id="cq-git-branch" viewBox="0 0 20 20">
        <circle fill="none" stroke="currentColor" stroke-width="1.2" cx="7" cy="3" r="2"></circle><circle fill="none" stroke="currentColor" stroke-width="1.2" cx="14" cy="6" r="2"></circle><circle fill="none" stroke="currentColor" stroke-width="1.2" cx="7" cy="17" r="2"></circle><path fill="none" stroke="currentColor" stroke-width="2" d="M14 8c0 2.41-1.57 2.87-3.44 3.25C9.09 11.54 7 12.06 7 15V5"></path>
    </symbol>
    <symbol id="cq-git-fork" viewBox="0 0 20 20">
        <circle fill="none" stroke="currentColor" stroke-width="1.2" cx="5.79" cy="2.79" r="1.79"></circle><circle fill="none" stroke="currentColor" stroke-width="1.2" cx="14.19" cy="2.79" r="1.79"></circle><ellipse fill="none" stroke="currentColor" stroke-width="1.2" cx="10.03" cy="16.79" rx="1.79" ry="1.79"></ellipse><path fill="none" stroke="currentColor" stroke-width="2" d="M5.79 4.57v1.99c0 2.63 4.24 3.66 4.24 6.75 0 1.55.01 1.24.01 1.24v-1.24c0-3.09 4.16-4.12 4.16-6.75V4.57"></path>
    </symbol>
    <symbol id="cq-gitter" viewBox="0 0 20 20">
        <path d="M3.5 1h1.531v11.471H3.5zm3.824 3.059h1.529v15.294H7.324zm3.824 0h1.527v15.294h-1.527zm3.823 0H16.5v8.412h-1.529z" fill="currentColor"></path>
    </symbol>
    <symbol id="cq-grid" viewBox="0 0 20 20">
        <path d="M2 2h3v3H2zm6 0h3v3H8zm6 0h3v3h-3zM2 8h3v3H2zm6 0h3v3H8zm6 0h3v3h-3zM2 14h3v3H2zm6 0h3v3H8zm6 0h3v3h-3z" fill="currentColor"></path>
    </symbol>
    <symbol id="cq-happy" viewBox="0 0 20 20">
        <circle cx="13" cy="7" r="1" fill="currentColor"></circle><circle cx="7" cy="7" r="1" fill="currentColor"></circle><circle fill="none" stroke="currentColor" cx="10" cy="10" r="8.5"></circle><path fill="none" stroke="currentColor" d="M14.6 11.4c-.7 1.9-2.5 3.1-4.6 3.1-2.1 0-3.9-1.2-4.6-3.1"></path>
    </symbol>
    <symbol id="cq-hashtag" viewBox="0 0 20 20">
        <path d="M15.431 8l.23-1h-2.75l.92-4h-.93l-.921 4H9.29l.92-4h-.929l-.92 4H5.23L5 8h3.13l-.92 4H4.23L4 13h2.98l-.919 4h.93l.92-4h2.69l-.92 4h.93l.92-4h2.9l.23-1H11.76l.921-4h2.75zm-4.6 4h-2.69l.92-4h2.689l-.919 4z" fill="currentColor"></path>
    </symbol>
    <symbol id="cq-heart" viewBox="0 0 20 20">
        <path fill="none" stroke="currentColor" stroke-width="1.03" d="M10 4S8.1 2 5.74 2 1 3.55 1 6.73c0 2.11 1.67 3.71 1.67 3.71L10 18l7.33-7.56S19 8.84 19 6.73C19 3.55 16.62 2 14.26 2 11.9 2 10 4 10 4z"></path>
    </symbol>
    <symbol id="cq-history" viewBox="0 0 20 20">
        <path d="M1 2h1v4h4v1H1V2" fill="currentColor"></path><path fill="none" stroke="currentColor" stroke-width="1.1" d="M2.1 6.548C3.391 3.29 6.746 1 10.5 1c5 0 9 4 9 9s-4 9-9 9-9-4-9-9"></path><path d="M9 4h1v7H9z" fill="currentColor"></path><path fill="none" stroke="currentColor" stroke-width="1.1" d="M13.018 14.197l-3.573-3.572"></path>
    </symbol>
    <symbol id="cq-home" viewBox="0 0 20 20">
        <path d="M18.65 11.35L10 2.71l-8.65 8.64-.7-.7L10 1.29l9.35 9.36zM15 4h3v3h-1V5h-2z" fill="currentColor"></path><path d="M3 11h1v7h3v-6h5v6h4v-7h1v8h-6v-6H8v6H3z" fill="currentColor"></path>
    </symbol>
    <symbol id="cq-images-image" viewBox="0 0 20 20">
        <circle cx="16.1" cy="6.1" r="1.1" fill="currentColor"></circle><path fill="none" stroke="currentColor" d="M.5 2.5h19v15H.5z"></path><path fill="none" stroke="currentColor" stroke-width="1.01" d="M4 13l4-4 5 5"></path><path fill="none" stroke="currentColor" stroke-width="1.01" d="M11 12l1.5-1.5L16 14"></path>
    </symbol>
    <symbol id="cq-images-photo" viewBox="0 0 1024 1024">
        <path d="M626.272 347.424L525.664 498.848l-73.12-73.696-73.152 118.304-54.848-54.304L265.152 608h466.304L626.272 347.424zM128 160v736h736V160H128zm672 512H192V224h608v448zM335.712 418.272c26.528 0 48-21.472 48-48s-21.472-48-48-48c-26.496 0-48 21.472-48 48s21.504 48 48 48z" fill="currentColor"></path>
    </symbol>
    <symbol id="cq-images-photos" viewBox="0 0 1040 1024">
        <path d="M851.328 946.784l-83.968-23.04-.192-232.256 80.32 22.592 115.808-432.288-586.624-157.184L338.016 268.8H271.84l59.616-222.464 710.176 190.272-190.304 710.176zM737.248 1024H0V288.736h737.248V1024zm-63.936-671.328H63.936v447.52h609.376v-447.52zM251.168 671.776l73.056-118.144 73.056 73.632L497.728 476l105.056 260.288H136.992l59.36-118.72 54.816 54.208zm-43.68-125.024c-26.496 0-47.968-21.44-47.968-47.936s21.472-47.936 47.968-47.936 47.936 21.44 47.936 47.936-21.44 47.936-47.936 47.936z" fill="currentColor"></path>
    </symbol>
    <symbol id="cq-info" viewBox="0 0 20 20">
        <path d="M12.13 11.59c-.16 1.25-1.78 2.53-3.03 2.57-2.93.04.79-4.7-.36-5.79.56-.21 1.88-.54 1.88.44 0 .82-.5 1.74-.74 2.51-1.22 3.84 2.25-.17 2.26-.14.02.03.02.17-.01.41-.05.36.03-.24 0 0zm-.57-5.92c0 1-2.2 1.48-2.2.36 0-1.03 2.2-1.49 2.2-.36z" fill="currentColor"></path><circle fill="none" stroke="currentColor" stroke-width="1.1" cx="10" cy="10" r="9"></circle>
    </symbol>
    <symbol id="cq-italic" viewBox="0 0 20 20">
        <path d="M12.63 5.48l-2.48 9.04c-.15.56.22.73 1.77.78l-.2.7H6l.2-.69c1.58-.05 1.99-.22 2.14-.78l2.48-9.04c.15-.57-.19-.73-1.73-.78L9.28 4H15l-.19.69c-1.58.06-2.03.22-2.18.79z" fill="currentColor"></path>
    </symbol>
    <symbol id="cq-lab" viewBox="0 0 32 32">
        <path d="M29.884 25.14L20 8.67V1.999h1c.55 0 1-.45 1-1s-.45-1-1-1H11c-.55 0-1 .45-1 1s.45 1 1 1h1V8.67L2.116 25.14C-.148 28.913 1.6 32 6 32h20c4.4 0 6.148-3.087 3.884-6.86zM7.532 20L14 9.221V2h4v7.221L24.468 20H7.533z" fill="currentColor"></path>
    </symbol>
    <symbol id="cq-link" viewBox="0 0 20 20">
        <path fill="none" stroke="currentColor" stroke-width="1.1" d="M10.625 12.375l-3.1 3.1c-.7.7-1.6.7-2.3 0l-.7-.7c-.7-.701-.7-1.6 0-2.3l3.1-3.1m1.7-2l3.1-3.1c.7-.7 1.6-.7 2.299 0l.701.7c.7.7.7 1.6 0 2.3l-3.1 3.1m-4.4 1.5l4-3.9"></path>
    </symbol>
    <symbol id="cq-list" viewBox="0 0 20 20">
        <path d="M6 4h12v1H6zm0 5h12v1H6zm0 5h12v1H6zM2 4h2v1H2zm0 5h2v1H2zm0 5h2v1H2z" fill="currentColor"></path>
    </symbol>
    <symbol id="cq-location" viewBox="0 0 20 20">
        <path fill="none" stroke="currentColor" stroke-width="1.01" d="M10 .5C6.41.5 3.5 3.39 3.5 6.98 3.5 11.83 10 19 10 19s6.5-7.17 6.5-12.02C16.5 3.39 13.59.5 10 .5z"></path><circle fill="none" stroke="currentColor" cx="10" cy="6.8" r="2.3"></circle>
    </symbol>
    <symbol id="cq-lock" viewBox="0 0 768 768">
        <path d="M483 256.5V192c0-54-45-99-99-99s-99 45-99 99v64.5h198zm-99 288c34.5 0 64.5-30 64.5-64.5s-30-64.5-64.5-64.5-64.5 30-64.5 64.5 30 64.5 64.5 64.5zm192-288c34.5 0 64.5 28.5 64.5 63v321c0 34.5-30 63-64.5 63H192c-34.5 0-64.5-28.5-64.5-63v-321c0-34.5 30-63 64.5-63h31.5V192c0-88.5 72-160.5 160.5-160.5s160.5 72 160.5 160.5v64.5H576z" fill="currentColor"></path>
    </symbol>
    <symbol id="cq-mail" viewBox="0 0 20 20">
        <path fill="none" stroke="currentColor" d="M1.4 6.5L10 11l8.6-4.5"></path><path d="M1 4v12h18V4H1zm17 11H2V5h16v10z" fill="currentColor"></path>
    </symbol>
    <symbol id="cq-map" viewBox="0 0 768 768">
        <path d="M480 607.5V228l-192-67.5V540zM655.5 96c9 0 16.5 7.5 16.5 16.5v483c0 7.5-6 13.5-12 15L480 672l-192-67.5-171 66-4.5 1.5c-9 0-16.5-7.5-16.5-16.5v-483c0-7.5 6-13.5 12-15L288 96l192 67.5 171-66z" fill="currentColor"></path>
    </symbol>
    <symbol id="cq-menu" viewBox="0 0 20 20">
        <path d="M2 4h16v1H2zm0 5h16v1H2zm0 5h16v1H2z" fill="currentColor"></path>
    </symbol>
    <symbol id="cq-minus-circle" viewBox="0 0 20 20">
        <circle fill="none" stroke="currentColor" stroke-width="1.1" cx="9.5" cy="9.5" r="9"></circle><path fill="none" stroke="currentColor" d="M5 9.5h9"></path>
    </symbol>
    <symbol id="cq-minus" viewBox="0 0 20 20">
        <path d="M1 9h18v1H1z" fill="currentColor"></path>
    </symbol>
    <symbol id="cq-money-euro" viewBox="0 0 768 768">
        <path d="M480 592.5c52.5 0 99-19.5 135-51l57 57C621 645 553.5 672 480 672c-126 0-232.5-81-271.5-192H96v-64.5h97.5c-1.5-10.5-1.5-21-1.5-31.5s0-21 1.5-31.5H96V288h112.5C247.5 177 354 96 480 96c73.5 0 141 27 192 73.5l-57 57c-36-31.5-84-51-135-51-79.5 0-150 46.5-184.5 112.5H480v64.5H274.5c-1.5 10.5-3 21-3 31.5s1.5 21 3 31.5H480V480H295.5C330 546 399 592.5 480 592.5z" fill="currentColor"></path>
    </symbol>
    <symbol id="cq-more-vertical" viewBox="0 0 20 20">
        <circle cx="10" cy="3" r="2" fill="currentColor"></circle><circle cx="10" cy="10" r="2" fill="currentColor"></circle><circle cx="10" cy="17" r="2" fill="currentColor"></circle>
    </symbol>
    <symbol id="cq-more" viewBox="0 0 20 20">
        <circle cx="3" cy="10" r="2" fill="currentColor"></circle><circle cx="10" cy="10" r="2" fill="currentColor"></circle><circle cx="17" cy="10" r="2" fill="currentColor"></circle>
    </symbol>
    <symbol id="cq-move" viewBox="0 0 20 20">
        <path d="M4 5H1v4h1V6h2zM1 16h1v2h2v1H1zm13 0v3h-3v-1h2v-2z" fill="currentColor"></path><path fill="none" stroke="currentColor" d="M5.5 1.5h13v13h-13z"></path><path d="M1 11h1v3H1zm5 7h3v1H6z" fill="currentColor"></path>
    </symbol>
    <symbol id="cq-nut" viewBox="0 0 20 20">
        <path fill="none" stroke="currentColor" d="M2.5 5.7L10 1.3l7.5 4.4v8.6L10 18.7l-7.5-4.4z"></path><circle fill="none" stroke="currentColor" cx="10" cy="10" r="3.5"></circle>
    </symbol>
    <symbol id="cq-office" viewBox="0 0 512 512">
        <path d="M0 512h256V0H0v512zM160 64h64v64h-64V64zm0 128h64v64h-64v-64zm0 128h64v64h-64v-64zM32 64h64v64H32V64zm0 128h64v64H32v-64zm0 128h64v64H32v-64zm256-160h224v32H288zm0 352h64V384h96v128h64V224H288z" fill="currentColor"></path>
    </symbol>
    <symbol id="cq-pagekit" viewBox="0 0 20 20">
        <path d="M3 1h14v15h-7v-3h4V4H6v12h4v3H3z" fill="currentColor"></path>
    </symbol>
    <symbol id="cq-paint-bucket" viewBox="0 0 20 20">
        <path d="M10.21 1L0 11.21l8.1 8.1L18.31 9.1 10.21 1zm6.68 8.1L15 11H1.7l8.51-8.58 6.68 6.68z" fill="currentColor"></path><path fill="none" stroke="currentColor" stroke-width="1.1" d="M6.42 2.33l5.28 5.28"></path><path d="M18.49 12S20 14.06 20 15.36c0 .92-.76 1.64-1.51 1.64S17 16.28 17 15.36c0-1.3 1.49-3.36 1.49-3.36z" fill="currentColor"></path>
    </symbol>
    <symbol id="cq-pencil" viewBox="0 0 20 20">
        <path fill="none" stroke="currentColor" d="M17.25 6.01L7.12 16.1l-3.3 1.1 1.2-3.3 10.1-10.02c.59-.59 1.54-.59 2.13 0 .58.59.58 1.54 0 2.13zm-1.27 1.258l-2.129-2.12"></path>
    </symbol>
    <symbol id="cq-phone-landscape" viewBox="0 0 20 20">
        <path fill="none" stroke="currentColor" d="M17 5.5c.8 0 1.5.7 1.5 1.5v7c0 .8-.7 1.5-1.5 1.5H3c-.8 0-1.5-.7-1.5-1.5V7c0-.8.7-1.5 1.5-1.5h14z"></path><circle cx="3.8" cy="10.5" r=".8" fill="currentColor"></circle>
    </symbol>
    <symbol id="cq-phone" viewBox="0 0 20 20">
        <path fill="none" stroke="currentColor" d="M15.5 17c0 .8-.7 1.5-1.5 1.5H7c-.8 0-1.5-.7-1.5-1.5V3c0-.8.7-1.5 1.5-1.5h7c.8 0 1.5.7 1.5 1.5v14z"></path><circle cx="10.5" cy="16.5" r=".8" fill="currentColor"></circle>
    </symbol>
    <symbol id="cq-play-circle" viewBox="0 0 20 20">
        <path fill="none" stroke="currentColor" stroke-width="1.1" d="M8.5 7l5 3-5 3z"></path><circle fill="none" stroke="currentColor" stroke-width="1.1" cx="10" cy="10" r="9"></circle>
    </symbol>
    <symbol id="cq-play" viewBox="0 0 20 20">
        <path fill="none" stroke="currentColor" d="M6.5 5l8 5-8 5z"></path>
    </symbol>
    <symbol id="cq-plus-circle" viewBox="0 0 20 20">
        <circle fill="none" stroke="currentColor" stroke-width="1.1" cx="9.5" cy="9.5" r="9"></circle><path fill="none" stroke="currentColor" d="M9.5 5v9M5 9.5h9"></path>
    </symbol>
    <symbol id="cq-plus" viewBox="0 0 768 768">
        <path d="M607.5 415.5h-192v192h-63v-192h-192v-63h192v-192h63v192h192v63z" fill="currentColor"></path>
    </symbol>
    <symbol id="cq-pull" viewBox="0 0 20 20">
        <path d="M6.85 8l2.65 2.6L12.15 8l.7.7L9.5 12 6.15 8.7z" fill="currentColor"></path><path fill="none" stroke="currentColor" d="M9.5 11V2M6 5.5H3.5v13h12v-13H13"></path>
    </symbol>
    <symbol id="cq-push" viewBox="0 0 20 20">
        <path d="M12.15 4L9.5 1.4 6.85 4l-.7-.7L9.5 0l3.35 3.3z" fill="currentColor"></path><path fill="none" stroke="currentColor" d="M9.5 10V1M6 5.5H3.5v13h12v-13H13"></path>
    </symbol>
    <symbol id="cq-question" viewBox="0 0 20 20">
        <circle fill="none" stroke="currentColor" stroke-width="1.1" cx="10" cy="10" r="9"></circle><circle cx="10.44" cy="14.42" r="1.05" fill="currentColor"></circle><path fill="none" stroke="currentColor" stroke-width="1.2" d="M8.17 7.79c0-3.04 4.55-3.06 4.55-.07 0 .95-.91 1.43-1.49 2.03-.48.49-.72.98-.78 1.65-.01.13-.02.24-.02.35"></path>
    </symbol>
    <symbol id="cq-quote-right" viewBox="0 0 20 20">
        <path d="M17.27 7.79c0 1.66-.3 2.64-1.28 4.23-1.01 1.62-2.99 3.21-4.43 3.95l-.46-.89c1.24-.88 2.04-1.57 2.92-3.26.25-.48.39-.9.47-1.28-.19.04-.4.06-.61.06-1.82 0-3.29-1.48-3.29-3.3 0-1.82 1.47-3.3 3.29-3.3 1.51 0 2.79 1.02 3.17 2.42.14.4.22.85.22 1.37zm-8.59 0c0 1.66-.3 2.64-1.28 4.23-1.01 1.62-2.99 3.21-4.43 3.95l-.46-.89c1.24-.88 2.04-1.57 2.92-3.26.25-.48.39-.9.47-1.28-.19.04-.4.06-.61.06C3.47 10.6 2 9.12 2 7.3 2 5.48 3.47 4 5.29 4 6.8 4 8.08 5.02 8.46 6.42c.14.4.22.85.22 1.37z" fill="currentColor"></path>
    </symbol>
    <symbol id="cq-receiver" viewBox="0 0 20 20">
        <path fill="none" stroke="currentColor" stroke-width="1.01" d="M6.189 13.611c1.945 1.914 4.908 4.628 7.678 4.646 2.603.018 4.333-2.016 4.333-2.016l-3.691-3.69-2.97 1.088-5.35-5.349 1.124-2.935L3.76 1.8S1.732 3.537 1.7 6.092c-.033 2.717 2.647 5.646 4.489 7.519"></path>
    </symbol>
    <symbol id="cq-refresh" viewBox="0 0 20 20">
        <path fill="none" stroke="currentColor" stroke-width="1.1" d="M17.08 11.15c.01.16.02.32.02.49 0 3.89-3.16 7.05-7.05 7.05C6.16 18.68 3 15.53 3 11.63c0-3.89 3.16-7.05 7.05-7.05.85 0 1.66.15 2.41.42"></path><path fill="none" stroke="currentColor" d="M9.9 2l2.89 2.89-3 3.01"></path>
    </symbol>
    <symbol id="cq-reply" viewBox="0 0 20 20">
        <path d="M17.7 13.11c-1.58-3.09-3.86-5.26-6.68-6.5-.45-.2-1.27-.48-2.02-.7V2L1 9l8 7v-3.87c1.78.34 3.5 1.06 5.09 2.12 3.04 2.03 4.47 4.29 4.47 4.29s.25-3.26-.86-5.43zm-2.88.42C13.17 12.4 11.01 11.4 8 10.92v2.71L2.55 9 8 4.25V6.8c.3.06 1.16.22 2.37.69 2.93 1.16 5.17 3.47 6.28 5.59.32.62.83 1.78 1.03 2.92-.81-.95-1.95-1.85-2.86-2.47z" fill="currentColor"></path>
    </symbol>
    <symbol id="cq-rss" viewBox="0 0 20 20">
        <circle cx="3.12" cy="16.8" r="1.85" fill="currentColor"></circle><path fill="none" stroke="currentColor" stroke-width="1.1" d="M1.5 8.2c.28-.02.56-.04.85-.04 5.22 0 9.46 4.21 9.46 9.41 0 .32-.02.62-.05.93"></path><path fill="none" stroke="currentColor" stroke-width="1.1" d="M1.5 2.52c.28-.01.56-.02.85-.02 8.37 0 15.15 6.74 15.15 15.07 0 .32-.01.62-.03.93"></path>
    </symbol>
    <symbol id="cq-sad" viewBox="0 0 20 20">
        <circle cx="13" cy="7" r="1" fill="currentColor"></circle><circle cx="7" cy="7" r="1" fill="currentColor"></circle><circle fill="none" stroke="currentColor" cx="10" cy="10" r="8.5"></circle><path d="M5.4 14.5c.7-1.9 2.5-3.1 4.6-3.1s3.9 1.2 4.6 3.1" fill="none" stroke="currentColor"></path>
    </symbol>
    <symbol id="cq-search" viewBox="0 0 768 768">
        <path d="M304.5 448.5c79.5 0 144-64.5 144-144s-64.5-144-144-144-144 64.5-144 144 64.5 144 144 144zm192 0l159 159-48 48-159-159V471l-9-9c-36 31.5-84 49.5-135 49.5C189 511.5 96 420 96 304.5S189 96 304.5 96s207 93 207 208.5c0 51-18 99-49.5 135l9 9h25.5z" fill="currentColor"></path>
    </symbol>
    <symbol id="cq-settings" viewBox="0 0 20 20">
        <ellipse fill="none" stroke="currentColor" cx="6.11" cy="3.55" rx="2.11" ry="2.15"></ellipse><ellipse fill="none" stroke="currentColor" cx="6.11" cy="15.55" rx="2.11" ry="2.15"></ellipse><circle fill="none" stroke="currentColor" cx="13.15" cy="9.55" r="2.15"></circle><path d="M1 3h3v1H1zm9 0h8v1h-8zM1 9h8v1H1zm14 0h3v1h-3zM1 15h3v1H1zm9 0h8v1h-8z" fill="currentColor"></path>
    </symbol>
    <symbol id="cq-shrink" viewBox="0 0 20 20">
        <path d="M11 4h1v4h4v1h-5zm-7 7h5v5H8v-4H4z" fill="currentColor"></path><path fill="none" stroke="currentColor" stroke-width="1.1" d="M12 8l6-6M2 18l6-6"></path>
    </symbol>
    <symbol id="cq-sign-in" viewBox="0 0 20 20">
        <path d="M7 2h10v15H7v-1h9V3H7z" fill="currentColor"></path><path d="M9.1 13.4l-.6-.6 2.78-2.8H4V9h7.28L8.5 6.2l.6-.58L13 9.5z" fill="currentColor"></path>
    </symbol>
    <symbol id="cq-sign-out" viewBox="0 0 20 20">
        <path d="M13.1 13.4l-.6-.6 2.78-2.8H8V9h7.28L12.5 6.2l.6-.58L17 9.5z" fill="currentColor"></path><path d="M13 2H3v15h10v-1H4V3h9z" fill="currentColor"></path>
    </symbol>
    <symbol id="cq-slider" viewBox="0 0 50 50">
        <circle cx="31" cy="37.5" r="2" fill="currentColor"></circle><circle cx="25" cy="37.5" r="2" fill="currentColor"></circle><path d="M8.8 20.2l-4.7 4.7 4.7 4.7 1.4-1.4L7 25l3.2-3.4z" fill="currentColor"></path><circle cx="19" cy="37.5" r="2" fill="currentColor"></circle><path d="M39.8 21.8L43 25l-3.2 3.2 1.4 1.4 4.7-4.5-4.7-4.7z" fill="currentColor"></path><path d="M47 6.5H3c-1.7 0-3 1.3-3 3v31c0 1.7 1.3 3 3 3h44c1.7 0 3-1.3 3-3v-31c0-1.7-1.3-3-3-3zm2 34c0 1.1-.9 2-2 2H3c-1.1 0-2-.9-2-2v-31c0-1.1.9-2 2-2h44c1.1 0 2 .9 2 2v31z" fill="currentColor"></path>
    </symbol>
    <symbol id="cq-social-500px" viewBox="0 0 20 20">
        <path d="M9.624 11.866c-.141.132.479.658.662.418.051-.046.607-.61.662-.664 0 0 .738.719.814.719.1 0 .207-.055.322-.17.27-.269.135-.416.066-.495l-.631-.616.658-.668c.146-.156.021-.314-.1-.449-.182-.18-.359-.226-.471-.125l-.656.654-.654-.654a.17.17 0 0 0-.124-.045c-.079 0-.191.068-.307.181-.202.202-.247.351-.133.462l.665.665-.773.787zm1.442-8.982c-1.061 0-2.185.248-3.011.604a.231.231 0 0 0-.15.205c-.012.091.014.216.077.373.05.136.187.474.452.372a7.501 7.501 0 0 1 2.633-.507 7.1 7.1 0 0 1 2.781.564c.695.292 1.357.719 2.078 1.34a.248.248 0 0 0 .164.068c.143 0 .273-.137.389-.271.191-.214.324-.395.135-.575-.686-.654-1.436-1.138-2.363-1.533a8.14 8.14 0 0 0-3.185-.64zm5.364 12.863c-.092-.028-.242.05-.309.119a7.093 7.093 0 0 1-5.047 2.072 7.036 7.036 0 0 1-2.775-.564 7.222 7.222 0 0 1-2.268-1.53 7.005 7.005 0 0 1-1.529-2.268 9.085 9.085 0 0 1-.471-1.643c-.045-.24-.258-.249-.567-.203-.128.021-.519.079-.483.36v.01c.105.644.289 1.284.545 1.895a8.315 8.315 0 0 0 1.756 2.604 8.352 8.352 0 0 0 2.604 1.757 8.148 8.148 0 0 0 3.202.644 8.067 8.067 0 0 0 3.188-.645c1.838-.896 2.604-1.757 2.604-1.757.182-.204.227-.317-.1-.643-.001.001-.255-.181-.35-.208z" fill="currentColor"></path><path d="M5.633 13.287a5.79 5.79 0 0 0 1.262 1.882 5.77 5.77 0 0 0 1.882 1.264 5.994 5.994 0 0 0 2.298.461 5.9 5.9 0 0 0 2.297-.461 5.753 5.753 0 0 0 1.883-1.264 5.734 5.734 0 0 0 1.264-1.882c.314-.721.463-1.5.463-2.298 0-.79-.148-1.569-.463-2.289a5.968 5.968 0 0 0-1.264-1.881 6.023 6.023 0 0 0-1.867-1.263 5.924 5.924 0 0 0-2.299-.461c-.802 0-1.613.159-2.322.461-.577.25-1.544.867-2.119 1.454v.012-4.914h8.16c.292-.004.292-.418.292-.556 0-.135 0-.552-.291-.552H5.915a.383.383 0 0 0-.388.384v6.84c0 .214.273.372.529.428.5.105.614-.056.737-.224.18-.273.776-.884.787-.894a4.79 4.79 0 0 1 3.416-1.408c1.285 0 2.5.501 3.412 1.408a4.776 4.776 0 0 1 1.408 3.405 4.817 4.817 0 0 1-1.408 3.405 4.898 4.898 0 0 1-3.438 1.406 4.63 4.63 0 0 1-2.433-.671v-4.158c0-.553.237-1.151.643-1.614a2.352 2.352 0 0 1 1.782-.799c.664 0 1.293.253 1.758.715.459.459.709 1.071.709 1.723 0 1.385-1.094 2.468-2.488 2.468-.273 0-.769-.121-.781-.125-.281-.087-.405.306-.438.436-.159.496.079.585.123.607.452.137.743.157 1.129.157 1.973 0 3.572-1.6 3.572-3.57 0-1.964-1.6-3.552-3.572-3.552-.97 0-1.872.36-2.546 1.038-.656.631-1.027 1.487-1.027 2.322v3.438-.011c-.372-.42-.732-1.041-.981-1.682-.102-.248-.315-.202-.607-.113-.135.035-.519.157-.44.439-.001.001.204.366.26.489z" fill="currentColor"></path>
    </symbol>
    <symbol id="cq-social-behance" viewBox="0 0 20 20">
        <path d="M9.5 10.6c-.4-.5-.9-.9-1.6-1.1 1.7-1 2.2-3.2.7-4.7C7.8 4 6.3 4 5.2 4H0v12h5.2c1 0 2.1 0 3.1-.5 1.9-.9 2.2-3.2 1.2-4.9zM5.6 6.1c1.8 0 1.8 2.7-.1 2.7H2.6V6.1h3zm-3 7.7v-3.1h3.2c2.1 0 2.1 3.2.1 3.2l-3.3-.1zm17.3-2.9C19.7 9.2 18.7 7.6 17 7c-4.2-1.3-7.3 3.4-5.3 7.1.9 1.7 2.8 2.3 4.7 2.1 1.7-.2 2.9-1.3 3.4-2.9h-2.2c-.4 1.3-2.4 1.5-3.5.6-.4-.4-.6-1.1-.6-1.7H20c0-.5-.1-1.3-.1-1.3zm-6.4-.3c0-1.6 2.3-2.7 3.5-1.4.4.4.5.9.6 1.4h-4.1zM13 4h5v1.4h-5z" fill="currentColor"></path>
    </symbol>
    <symbol id="cq-social-dribbble" viewBox="0 0 20 20">
        <path fill="none" stroke="currentColor" stroke-width="1.4" d="M1.3 8.9s5 .1 8.6-1c1.4-.4 2.6-.9 4-1.9 1.4-1.1 2.5-2.5 2.5-2.5M3.9 16.6s1.7-2.8 3.5-4.2c1.8-1.3 4-2 5.7-2.2 2.9-.2 5.9.4 5.9.4"></path><path fill="none" stroke="currentColor" stroke-width="1.4" d="M6.9 1.6s3.3 4.6 4.2 6.8c.4.9 1.3 3.1 1.9 5.2.6 2 .9 4.4.9 4.4"></path><circle fill="none" stroke="currentColor" stroke-width="1.4" cx="10" cy="10" r="9"></circle>
    </symbol>
    <symbol id="cq-social-facebook" viewBox="0 0 20 20">
        <path d="M11 10h2.6l.4-3h-3V5.3c0-.9.2-1.5 1.5-1.5H14V1.1c-.3 0-1-.1-2.1-.1C9.6 1 8 2.4 8 5v2H5.5v3H8v8h3v-8z" fill="currentColor"></path>
    </symbol>
    <symbol id="cq-social-flickr" viewBox="0 0 20 20">
        <circle cx="5.5" cy="9.5" r="3.5" fill="currentColor"></circle><circle cx="14.5" cy="9.5" r="3.5" fill="currentColor"></circle>
    </symbol>
    <symbol id="cq-social-foursquare" viewBox="0 0 20 20">
        <path d="M15.23 2c.73 0 1.17.41 1.27.86.07.29.06.58.01.87-.05.31-1.65 7.99-1.76 8.3-.19.53-.59.79-1.14.8-.58.01-2.52-.32-2.92.17-.31.38-2.9 3.39-3.88 4.53-.2.23-.41.43-.73.46-.4.05-.79-.12-.91-.54-.05-.17-.07-.36-.07-.54 0-4.51-.24-9.1.01-13.6.06-.81.7-1.19 1.42-1.31h8.7zm-5.47 9.42c.18-.23.41-.32.69-.32h2.41c.26 0 .45-.16.5-.41.01-.05.26-1.28.38-1.86.07-.31-.21-.55-.47-.55-.92.01-1.85 0-2.77 0-.66 0-.67-.59-.68-1.07-.02-.36.31-.66.68-.66 1.09.01 2.17 0 3.26 0 .27 0 .47-.15.52-.41.06-.27.39-1.85.39-1.85s.15-.55-.48-.55H7.34c-.34.01-.5.28-.5.59 0 3.25.01 10.62.01 10.66.02.01 2.04-2.48 2.91-3.57z" fill="currentColor"></path>
    </symbol>
    <symbol id="cq-social-github-alt" viewBox="0 0 20 20">
        <path d="M10 .5C4.75.5.5 4.76.5 10.01s4.25 9.5 9.5 9.5c5.24 0 9.5-4.25 9.5-9.5S15.25.5 10 .5zm2.81 17.19s0 .01-.02 0c-.32.06-.44-.1-.44-.33v-1.19c0-.72-.26-1.25-.77-1.61a6.4 6.4 0 0 0 1.68-.35c.61-.23 1.1-.52 1.48-.92.68-.7 1.02-1.74 1.02-3.12 0-.92-.31-1.71-.93-2.37.27-.72.24-1.51-.08-2.36l-.24-.02c-.17-.02-.45.04-.84.19-.42.17-.88.42-1.36.74-.76-.19-1.5-.3-2.22-.3-.73 0-1.48.1-2.21.3-.6-.39-1.13-.67-1.62-.81-.19-.07-.36-.1-.48-.1h-.36c-.36.85-.38 1.64-.1 2.36-.62.66-.92 1.45-.92 2.37 0 1.77.56 2.99 1.68 3.67.45.29.97.48 1.61.59.34.07.63.11.86.12-.48.34-.73.87-.73 1.61v1.35c-.02.18-.12.29-.31.29-3.3-1.06-5.69-4.15-5.69-7.79 0-4.51 3.67-8.18 8.18-8.18 4.5 0 8.17 3.67 8.17 8.18.01 3.52-2.23 6.53-5.36 7.68z" fill="currentColor"></path>
    </symbol>
    <symbol id="cq-social-github" viewBox="0 0 20 20">
        <path d="M10 1a9 9 0 0 0-2.84 17.54c.45.08.61-.2.61-.43 0-.21-.01-.78-.01-1.53-2.5.54-3.03-1.21-3.03-1.21-.41-1.04-1-1.32-1-1.32-.82-.55.06-.55.06-.55.9.06 1.38.93 1.38.93.8 1.37 2.11.98 2.62.75.08-.58.31-.98.57-1.2-2-.23-4.1-1-4.1-4.45 0-.98.35-1.79.93-2.42-.09-.23-.4-1.14.09-2.38 0 0 .76-.24 2.47.92.72-.2 1.49-.3 2.25-.3s1.53.1 2.25.3c1.72-1.17 2.47-.92 2.47-.92.49 1.24.18 2.15.09 2.38.58.63.92 1.43.92 2.42 0 3.46-2.1 4.22-4.11 4.44.32.28.61.83.61 1.67 0 1.2-.01 2.17-.01 2.47 0 .24.16.52.62.43A9 9 0 0 0 10 1z" fill="currentColor"></path>
    </symbol>
    <symbol id="cq-social-google-plus" viewBox="0 0 20 20">
        <path d="M12.9 9c0 2.7-.6 5-3.2 6.3-3.7 1.8-8.1.2-9.4-3.6C-1.1 7.6 1.9 3.3 6.1 3c1.7-.1 3.2.3 4.6 1.3.1.1.3.2.4.4-.5.5-1.2 1-1.7 1.6-1-.8-2.1-1.1-3.5-.9-.9.2-1.7.6-2.3 1.3-1.3 1.3-1.5 3.4-.5 5 1 1.7 2.6 2.3 4.6 1.9 1.4-.3 2.4-1.2 2.6-2.6H6.9V9h6zM20 9v2h-2v2h-2v-2h-2V9h2V7h2v2z" fill="currentColor"></path>
    </symbol>
    <symbol id="cq-social-google" viewBox="0 0 20 20">
        <path d="M17.86 9.09c.6 3.03-.72 6.96-4.05 8.47-4.36 1.97-9.68.12-11.34-4.69C.68 7.68 4.22 2.42 9.5 2.03c2.07-.15 3.92.34 5.55 1.62.17.13.32.28.56.49-.71.67-1.38 1.31-2.11 2-1.23-1.06-2.66-1.42-4.22-1.16-1.16.19-2.12.78-2.91 1.65-1.49 1.64-1.75 4.23-.61 6.19 1.19 2.05 3.41 2.98 5.81 2.43 1.7-.38 3.19-1.92 3.32-3.5h-4.38V9.09h7.35z" fill="currentColor"></path>
    </symbol>
    <symbol id="cq-social-instagram" viewBox="0 0 20 20">
        <path d="M13.55 1H6.46C3.45 1 1 3.44 1 6.44v7.12c0 3 2.45 5.44 5.46 5.44h7.08c3.02 0 5.46-2.44 5.46-5.44V6.44c.01-3-2.44-5.44-5.45-5.44zm3.95 13c0 1.93-1.57 3.5-3.5 3.5H6c-1.93 0-3.5-1.57-3.5-3.5V6c0-1.93 1.57-3.5 3.5-3.5h8c1.93 0 3.5 1.57 3.5 3.5v8z" fill="currentColor"></path><circle cx="14.87" cy="5.26" r="1.09" fill="currentColor"></circle><path d="M10.03 5.45c-2.55 0-4.63 2.06-4.63 4.6 0 2.55 2.07 4.61 4.63 4.61s4.63-2.061 4.63-4.61a4.626 4.626 0 0 0-4.63-4.6zm.05 7.55c-1.66 0-3-1.34-3-2.99 0-1.65 1.34-2.99 3-2.99s3 1.34 3 2.99c0 1.65-1.34 2.99-3 2.99z" fill="currentColor"></path>
    </symbol>
    <symbol id="cq-social-joomla" viewBox="0 0 20 20">
        <path d="M7.8 13.4l1.7-1.7L5.9 8c-.6-.5-.6-1.5 0-2 .6-.6 1.4-.6 2 0l1.7-1.7c-1-1-2.3-1.3-3.6-1-.2-1.1-1.2-1.9-2.3-1.9-1.3 0-2.3 1-2.3 2.3 0 1.1.8 2 1.8 2.3-.4 1.3-.1 2.8 1 3.8l3.6 3.6z" fill="currentColor"></path><path d="M10.2 4.3c1-1 2.5-1.4 3.8-1 .2-1.1 1.1-2 2.3-2 1.3 0 2.3 1 2.3 2.3 0 1.2-.9 2.2-2 2.3.4 1.3 0 2.8-1 3.8L13.9 8c.6-.5.6-1.5 0-2-.5-.6-1.5-.6-2 0L8.2 9.7 6.5 8" fill="currentColor"></path><path d="M14.1 16.8c-1.3.4-2.8.1-3.8-1l1.7-1.7c.6.6 1.5.6 2 0s.6-1.5 0-2l-3.7-3.7L12 6.7l3.7 3.7c1 1 1.3 2.4 1 3.6 1.1.2 2 1.1 2 2.3 0 1.3-1 2.3-2.3 2.3-1.2 0-2.1-.8-2.3-1.8" fill="currentColor"></path><path d="M13.2 12.2l-3.7 3.7c-1 1-2.4 1.3-3.6 1-.2 1-1.2 1.8-2.2 1.8-1.3 0-2.3-1-2.3-2.3 0-1.1.8-2 1.8-2.3-.3-1.3 0-2.7 1-3.7l1.7 1.7c-.6.6-.6 1.5 0 2 .6.6 1.4.6 2 0l3.7-3.7" fill="currentColor"></path>
    </symbol>
    <symbol id="cq-social-linkedin" viewBox="0 0 20 20">
        <path d="M5.77 17.89V7.17H2.21v10.72h3.56zM3.99 5.71c1.24 0 2.02-.82 2.02-1.85C5.99 2.8 5.24 2 4.02 2S2 2.8 2 3.85c0 1.03.77 1.85 1.97 1.85h.02v.01zm3.76 12.18h3.56V11.9c0-.32.02-.64.12-.87.26-.64.84-1.3 1.83-1.3 1.29 0 1.8.98 1.8 2.42v5.74h3.56v-6.15c0-3.29-1.76-4.82-4.1-4.82-1.92 0-2.77 1.07-3.24 1.81h.02V7.17H7.75c.04 1 0 10.72 0 10.72z" fill="currentColor"></path>
    </symbol>
    <symbol id="cq-social-pinterest" viewBox="0 0 20 20">
        <path d="M10.21 1C5.5 1 3 4.16 3 7.61c0 1.6.85 3.59 2.22 4.23.21.1.32.05.36-.15.04-.15.22-.89.3-1.24a.31.31 0 0 0-.08-.31C5.36 9.59 5 8.58 5 7.65c0-2.41 1.82-4.74 4.93-4.74 2.68 0 4.56 1.83 4.56 4.44 0 2.95-1.49 5-3.43 5-1.07 0-1.87-.88-1.62-1.97.31-1.3.91-2.7.91-3.63 0-.84-.45-1.54-1.38-1.54-1.1 0-1.98 1.13-1.98 2.65 0 .97.33 1.62.33 1.62l-1.28 5.43c-.34 1.44.04 3.79.08 3.99.02.11.14.15.21.05.11-.14 1.41-2.1 1.78-3.51.13-.51.68-2.6.68-2.6.36.68 1.4 1.25 2.5 1.25 3.29 0 5.67-3.03 5.67-6.79C16.94 3.7 14 1 10.21 1" fill="currentColor"></path>
    </symbol>
    <symbol id="cq-social-rss" viewBox="0 0 24 24">
        <path d="M3.984 10.078c5.484 0 9.938 4.453 9.938 9.938h-2.859c0-3.891-3.188-7.078-7.078-7.078v-2.859zm0-5.625c8.578 0 15.563 6.984 15.563 15.563h-2.813c0-7.031-5.719-12.75-12.75-12.75V4.453zm0 13.36c0-1.219.984-2.156 2.203-2.156s2.156.938 2.156 2.156-.938 2.203-2.156 2.203-2.203-.984-2.203-2.203z" fill="currentColor"></path>
    </symbol>
    <symbol id="cq-social-soundcloud" viewBox="0 0 20 20">
        <path d="M17.2 9.4c-.4 0-.8.1-1.101.2-.199-2.5-2.399-4.5-5-4.5-.6 0-1.2.1-1.7.3-.199.1-.299.2-.299.2V15h8c1.601 0 2.801-1.2 2.801-2.8C20 10.7 18.7 9.4 17.2 9.4zM6 6.5h1.5V15H6zM3 8h1.5v7H3zm-3 2h1.5v5H0z" fill="currentColor"></path>
    </symbol>
    <symbol id="cq-social-tripadvisor" viewBox="0 0 20 20">
        <path d="M19.021 7.866c.235-1.004.979-2.012.979-2.012h-3.346C14.781 4.641 12.504 4 9.98 4c-2.617 0-4.981.651-6.845 1.876H0s.738.987.976 1.988a4.992 4.992 0 0 0-.973 2.964 5.016 5.016 0 0 0 5.011 5.009 5.01 5.01 0 0 0 3.901-1.879l1.063 1.599 1.075-1.615a4.935 4.935 0 0 0 1.838 1.451 5.027 5.027 0 0 0 3.825.15 5.032 5.032 0 0 0 2.964-6.439 4.891 4.891 0 0 0-.675-1.238h.016zm-2.641 6.728a3.972 3.972 0 0 1-4.717-1.557 3.858 3.858 0 0 1-.417-.811 3.802 3.802 0 0 1-.217-1.014 3.964 3.964 0 0 1 2.589-4.122 4.006 4.006 0 0 1 5.14 2.366 4.007 4.007 0 0 1-2.363 5.134l-.015.004zm-8.058-1.528a4.002 4.002 0 0 1-3.309 1.76 4.005 4.005 0 0 1-4.001-3.996 4.009 4.009 0 0 1 4.001-4.002c2.204 0 3.999 1.8 3.999 4.002 0 .137-.024.261-.04.396a4.002 4.002 0 0 1-.648 1.853v-.013h-.002zm-5.85-2.291a2.481 2.481 0 0 0 2.476 2.479 2.477 2.477 0 0 0 2.472-2.479 2.475 2.475 0 0 0-4.948 0zm10.042 0a2.475 2.475 0 0 0 2.471 2.479 2.477 2.477 0 0 0 2.474-2.479 2.475 2.475 0 0 0-4.951 0h.006zm-9.19 0c0-.893.726-1.618 1.614-1.618.889 0 1.625.727 1.625 1.618a1.625 1.625 0 1 1-3.25 0h.011zm10.03 0a1.618 1.618 0 1 1 3.237 0 1.626 1.626 0 1 1-3.251 0h.014zm-3.377-5.9c1.798 0 3.425.324 4.849.968a4.973 4.973 0 0 0-1.586.3 4.921 4.921 0 0 0-2.815 2.604 4.955 4.955 0 0 0-.448 1.72A5.02 5.02 0 0 0 5.076 5.82c1.425-.612 3.077-.945 4.864-.945h.037z" fill="currentColor"></path>
    </symbol>
    <symbol id="cq-social-tumblr" viewBox="0 0 20 20">
        <path d="M6.885 8.598v4.996c0 .282 0 .66.094.942.377 1.509 1.131 2.545 2.545 3.11 1.319.472 2.356.472 3.676 0 .565-.188 1.132-.659 1.132-.659l-.849-2.263s-1.036.378-1.603.283c-.565-.094-1.226-.66-1.226-1.508V8.597h2.828V5.771h-2.828V2H8.205s-.094.66-.188.942c-.189.849-.755 1.791-1.414 2.452C5.848 6.147 5 6.43 5 6.43v2.168h1.885z" fill="currentColor"></path>
    </symbol>
    <symbol id="cq-social-twitter" viewBox="0 0 20 20">
        <path d="M19 4.74a7.587 7.587 0 0 1-2.119.58 3.715 3.715 0 0 0 1.622-2.04 7.331 7.331 0 0 1-2.344.89A3.682 3.682 0 0 0 13.464 3a3.698 3.698 0 0 0-3.596 4.539 10.482 10.482 0 0 1-7.614-3.86c-.318.54-.5 1.181-.5 1.86 0 1.281.651 2.411 1.643 3.071a3.654 3.654 0 0 1-1.674-.461v.04a3.71 3.71 0 0 0 2.963 3.631 4.083 4.083 0 0 1-1.668.06 3.701 3.701 0 0 0 3.451 2.569 7.467 7.467 0 0 1-4.587 1.57 6.44 6.44 0 0 1-.882-.05 10.439 10.439 0 0 0 5.662 1.66c6.792 0 10.508-5.629 10.508-10.5 0-.16-.004-.32-.013-.48A7.533 7.533 0 0 0 19 4.74" fill="currentColor"></path>
    </symbol>
    <symbol id="cq-social-uikit" viewBox="0 0 20 20">
        <path d="M14.4 3.1l-3.1 2L15 7.3v5.6l-5 2.8-5-2.8V8.5L2 6.8v8l7.9 4.7 8.1-4.7V5.3zM9.8 4.2L6.7 2.4l3.1-2 3.1 1.9z" fill="currentColor"></path>
    </symbol>
    <symbol id="cq-social-vimeo" viewBox="0 0 20 20">
        <path d="M2.065 7.59c-.225-.223-.411-.508-.597-.752-.332-.42-.137-.411.274-.772 1.026-.91 2.004-1.896 3.127-2.688 1.017-.713 2.365-1.173 3.286-.039.849 1.045.869 2.629 1.084 3.891.215 1.309.421 2.648.88 3.901.127.352.37 1.018.81 1.074.567.078 1.145-.917 1.408-1.289.684-.987 1.611-2.317 1.494-3.587-.115-1.349-1.572-1.095-2.482-.773.146-1.514 1.555-3.216 2.912-3.792 1.439-.597 3.579-.587 4.302 1.036.772 1.759.078 3.802-.763 5.396-.918 1.731-2.1 3.333-3.363 4.829-1.114 1.329-2.432 2.787-4.093 3.422-1.897.723-3.021-.686-3.667-2.318-.705-1.777-1.056-3.771-1.565-5.621-.214-.782-.468-1.672-.976-2.317-.663-.833-1.416-.05-2.071.399-.088-.088.05-.039 0 0z" fill="currentColor"></path>
    </symbol>
    <symbol id="cq-social-whatsapp" viewBox="0 0 20 20">
        <path d="M16.7 3.3C14.9 1.5 12.6.5 10 .5 4.8.5.6 4.7.6 9.9c0 1.7.4 3.3 1.3 4.7L.6 19.5l5-1.3c1.4.8 2.9 1.2 4.5 1.2 5.2 0 9.4-4.2 9.4-9.4 0-2.6-1-5-2.8-6.7m-6.6 14.4c-1.4 0-2.8-.4-4-1.1l-.3-.2-3 .8.8-2.9-.2-.3c-.8-1.2-1.2-2.7-1.2-4.2C2.2 5.5 5.7 2 10 2c2.1 0 4.1.8 5.5 2.3 1.5 1.5 2.3 3.4 2.3 5.5.1 4.4-3.4 7.9-7.7 7.9m4.3-5.8l-1.6-.8c-.2-.1-.4-.1-.5.1-.2.2-.6.8-.8.9-.1.2-.3.2-.5.1s-1-.4-1.9-1.2c-.7-.6-1.2-1.4-1.3-1.6-.1-.2 0-.4.1-.5.1-.1.2-.2.3-.4.1-.1.2-.2.2-.4.1-.2 0-.3 0-.4 0-.1-.5-1.2-.7-1.7-.2-.5-.4-.4-.5-.4h-.4c-.2 0-.4.1-.6.3-.2.2-.8.8-.8 2s.8 2.3 1 2.4c.1.2 1.7 2.5 4 3.5.6.2 1 .4 1.3.5.6.2 1.1.2 1.5.1.5-.1 1.4-.6 1.6-1.1.2-.5.2-1 .1-1.1-.1-.1-.3-.2-.5-.3" fill="currentColor"></path>
    </symbol>
    <symbol id="cq-social-wordpress" viewBox="0 0 20 20">
        <path d="M10 .5C4.8.5.5 4.8.5 10s4.3 9.5 9.5 9.5 9.5-4.3 9.5-9.5S15.2.5 10 .5zm5.6 3.4h-.1c-.8 0-1.4.7-1.4 1.5 0 .7.4 1.3.8 1.9.3.6.7 1.3.7 2.3 0 .7-.3 1.5-.6 2.7l-.9 2.7-3-8.9c.5 0 .9-.1.9-.1.5 0 .5-.7 0-.6 0 0-1.3.1-2.2.1-.8 0-2.1-.1-2.1-.1-.5-.1-.5.6-.1.6 0 0 .4.1.9.1l1.3 3.5L8 15 5 6.1c.5 0 .9-.1.9-.1.5 0 .4-.7 0-.6 0 0-1.3.1-2.2.1h-.5c1.5-2.2 4-3.7 6.9-3.7 2.1-.1 4 .8 5.5 2.1zM2.5 6.6l3.9 10.8c-2.7-1.3-4.6-4.2-4.6-7.4 0-1.2.2-2.4.7-3.4zm7.7 4.1l2.5 6.9s0 .1.1.1c-.9.3-1.8.5-2.8.5-.8 0-1.6-.1-2.3-.3l2.5-7.2zm4 6.4l2.5-7.3c.5-1.2.6-2.1.6-2.9 0-.3 0-.6-.1-.8.6 1.2 1 2.5 1 4 .1 2.9-1.6 5.6-4 7z" fill="currentColor"></path>
    </symbol>
    <symbol id="cq-social-xing" viewBox="0 0 20 20">
        <path d="M4.4 4.56c-.16 0-.29.05-.35.16-.07.11-.06.25.02.4l1.75 3.04v.01l-2.76 4.87c-.07.14-.07.29 0 .4.06.11.18.18.34.18H6c.39 0 .57-.26.71-.5 0 0 2.7-4.77 2.8-4.96-.02-.02-1.79-3.12-1.79-3.12-.14-.23-.33-.48-.73-.48H4.4zM15.3 1c-.39 0-.56.25-.7.5 0 0-5.59 9.92-5.78 10.24l3.69 6.77c.13.23.33.49.72.49h2.59c.16 0 .28-.06.34-.17.07-.11.07-.26 0-.4l-3.66-6.69v-.02l5.75-10.16c.07-.14.07-.29 0-.4-.04-.1-.17-.16-.32-.16H15.3z" fill="currentColor"></path>
    </symbol>
    <symbol id="cq-social-yelp" viewBox="0 0 20 20">
        <path d="M17.175 14.971c-.112.77-1.686 2.767-2.406 3.054-.246.1-.487.076-.675-.069-.122-.096-2.446-3.859-2.446-3.859-.194-.293-.157-.682.083-.978.234-.284.581-.393.881-.276.016.01 4.21 1.394 4.332 1.482.178.148.263.379.225.646h.006zm-5.711-4.182c-.203-.307-.199-.666.009-.916 0 0 2.625-3.574 2.745-3.657.203-.135.452-.141.69-.025.691.335 2.085 2.405 2.167 3.199v.027c.024.271-.082.491-.273.623-.132.083-4.43 1.155-4.43 1.155-.322.096-.68-.06-.882-.381l-.026-.025zM9.475 9.563c-.155.046-.627.194-1.206-.746 0 0-3.916-6.16-4.007-6.351-.057-.212.011-.455.202-.65C5.047 1.211 8.21.327 9.037.529c.27.069.457.238.522.479.047.266.433 5.982.488 7.264.051 1.096-.418 1.245-.572 1.291zm.452 9.503c-.083.225-.273.373-.54.421-.762.13-3.15-.751-3.647-1.342a.798.798 0 0 1-.167-.394.53.53 0 0 1 .036-.272c.061-.155 2.917-3.538 2.917-3.538.214-.272.595-.355.952-.213.345.13.56.428.536.749 0 .002-.037 4.446-.087 4.589zm-6.432-5.154c-.235-.009-.444-.148-.568-.382-.089-.17-.151-.453-.19-.794-.107-1.035.024-2.592.333-3.088.145-.226.357-.345.592-.336.154 0 4.255 1.667 4.255 1.667.321.118.521.453.5.833-.023.37-.236.655-.551.738l-4.371 1.362z" fill="currentColor"></path>
    </symbol>
    <symbol id="cq-social-youtube" viewBox="0 0 20 20">
        <path d="M15 4.1c1 .1 2.3 0 3 .8.8.8.9 2.1.9 3.1.1 1.2.1 2.9.1 4-.1 1.1 0 2.4-.5 3.4-.5 1.1-1.4 1.5-2.5 1.6-1.2.1-8.6.1-11 0-1.1-.1-2.4-.1-3.2-1-.7-.8-.7-2-.8-3V8.9c0-1.1 0-2.4.5-3.4S3 4.3 4.1 4.2c1.2-.1 8.5-.2 10.9-.1zM8 7.5v6l5.5-3-5.5-3z" fill="currentColor"></path>
    </symbol>
    <symbol id="cq-social" viewBox="0 0 20 20">
        <path fill="none" stroke="currentColor" stroke-width="1.1" d="M13.4 14l-7.1-3.3m7.2-5.2l-7 3.3"></path><circle fill="none" stroke="currentColor" stroke-width="1.1" cx="15.5" cy="4.6" r="2.3"></circle><circle fill="none" stroke="currentColor" stroke-width="1.1" cx="15.5" cy="14.8" r="2.3"></circle><circle fill="none" stroke="currentColor" stroke-width="1.1" cx="4.5" cy="9.8" r="2.3"></circle>
    </symbol>
    <symbol id="cq-star" viewBox="0 0 20 20">
        <path fill="none" stroke="currentColor" stroke-width="1.01" d="M10 2l2.63 5.27 5.87.85-4.25 4.1 1 5.78L10 15.27 4.75 18l1-5.78-4.25-4.1 5.87-.85z"></path>
    </symbol>
    <symbol id="cq-strikethrough" viewBox="0 0 20 20">
        <path d="M6 13.02h.65c.99 2.14 2.21 3.1 3.76 3.1 1.81 0 2.51-1.19 2.51-2.23 0-1.34-.93-1.86-3.18-2.66-1.69-.59-3.51-1.12-3.51-3.4 0-2.33 1.86-3.74 4.17-3.74 1.04 0 1.73.22 2.32.45l.61-.54h.48v3.59h-.65c-.61-1.71-1.64-2.7-3.09-2.7-1.23 0-2.18.8-2.18 2.14 0 1.26 1 1.75 2.99 2.42 1.69.58 3.5 1.15 3.5 3.46 0 1.84-1.11 4.02-4.2 4.02-1 0-2.01-.24-2.72-.54l-.94.61H6v-3.98z" fill="currentColor"></path><path d="M3 10h15v1H3z" fill="currentColor"></path>
    </symbol>
    <symbol id="cq-table-grid" viewBox="0 0 768 768">
        <path d="M640.5 256.5v-129h-129v129h129zm0 192v-129h-129v129h129zm0 192v-129h-129v129h129zm-192-384v-129h-129v129h129zm0 192v-129h-129v129h129zm0 192v-129h-129v129h129zm-192-384v-129h-129v129h129zm0 192v-129h-129v129h129zm0 192v-129h-129v129h129zm384-576c34.5 0 63 28.5 63 63v513c0 34.5-28.5 63-63 63h-513c-34.5 0-63-28.5-63-63v-513c0-34.5 28.5-63 63-63h513z" fill="currentColor"></path>
    </symbol>
    <symbol id="cq-table" viewBox="0 0 20 20">
        <path d="M1 3h18v1H1zm0 4h18v1H1zm0 4h18v1H1zm0 4h18v1H1z" fill="currentColor"></path>
    </symbol>
    <symbol id="cq-tag" viewBox="0 0 20 20">
        <path fill="none" stroke="currentColor" stroke-width="1.1" d="M17.5 3.71v4.01c0 .24-.1.48-.29.67L8.39 17.2c-.4.4-1.06.4-1.46 0L2.8 13.07c-.4-.4-.4-1.06 0-1.46l8.81-8.81c.2-.2.47-.3.73-.3h3.85c.33 0 .67.13.92.38.24.23.37.52.39.83z"></path><circle cx="14" cy="6" r="1" fill="currentColor"></circle>
    </symbol>
    <symbol id="cq-tests-camera-video" viewBox="0 0 20 20">
        <path d="M19.131 17.053c-.242 0-.485-.097-.724-.288l-3.438-2.751c-.552-.442-.969-1.308-.969-2.015v-3c0-.707.416-1.573.969-2.015l3.438-2.751c.239-.191.482-.288.724-.288.433 0 .869.326.869 1.053v11c0 .278-.064.512-.19.694a.815.815 0 0 1-.679.359zM19 5.04l-3.407 2.725c-.31.248-.593.837-.593 1.234v3c0 .398.283.986.593 1.234L19 15.958V5.039zM11.5 17h-10C.673 17 0 16.327 0 15.5v-10C0 4.673.673 4 1.5 4h10c.827 0 1.5.673 1.5 1.5v10c0 .827-.673 1.5-1.5 1.5zM1.5 5a.5.5 0 0 0-.5.5v10a.5.5 0 0 0 .5.5h10a.5.5 0 0 0 .5-.5v-10a.5.5 0 0 0-.5-.5h-10z" fill="currentColor"></path>
    </symbol>
    <symbol id="cq-tests-download" viewBox="0 0 20 20">
        <path d="M14.853 9.647a.5.5 0 0 0-.707 0L10 13.793V2.5a.5.5 0 0 0-1 0v11.293L4.854 9.647a.5.5 0 0 0-.707.707l5 5a.498.498 0 0 0 .708-.001l5-5a.5.5 0 0 0 0-.707z" fill="currentColor"></path><path d="M17.5 19h-16C.673 19 0 18.327 0 17.5v-2a.5.5 0 0 1 1 0v2a.5.5 0 0 0 .5.5h16a.5.5 0 0 0 .5-.5v-2a.5.5 0 0 1 1 0v2c0 .827-.673 1.5-1.5 1.5z" fill="currentColor"></path>
    </symbol>
    <symbol id="cq-tests-file-add" viewBox="0 0 20 20">
        <path d="M17.854 5.646l-4.5-4.5A.5.5 0 0 0 13 1H3.5C2.673 1 2 1.673 2 2.5v16c0 .827.673 1.5 1.5 1.5h13c.827 0 1.5-.673 1.5-1.5V6a.504.504 0 0 0-.146-.354zM16.793 6H13.5a.5.5 0 0 1-.5-.5V2.207L16.793 6zM16.5 19h-13a.5.5 0 0 1-.5-.5v-16a.5.5 0 0 1 .5-.5H12v3.5c0 .827.673 1.5 1.5 1.5H17v11.5a.5.5 0 0 1-.5.5z" fill="currentColor"></path><path d="M11.5 13H9v-2.5a.5.5 0 0 0-1 0V13H5.5a.5.5 0 0 0 0 1H8v2.5a.5.5 0 0 0 1 0V14h2.5a.5.5 0 0 0 0-1z" fill="currentColor"></path>
    </symbol>
    <symbol id="cq-tests-file-empty" viewBox="0 0 20 20">
        <path d="M17.854 5.646l-4.5-4.5A.5.5 0 0 0 13 1H3.5C2.673 1 2 1.673 2 2.5v16c0 .827.673 1.5 1.5 1.5h13c.827 0 1.5-.673 1.5-1.5V6a.504.504 0 0 0-.146-.354zM16.793 6H13.5a.5.5 0 0 1-.5-.5V2.207L16.793 6zM17 18.5a.5.5 0 0 1-.5.5h-13a.5.5 0 0 1-.5-.5v-16a.5.5 0 0 1 .5-.5H12v3.5c0 .827.673 1.5 1.5 1.5H17v11.5z" fill="currentColor"></path>
    </symbol>
    <symbol id="cq-tests-film-play" viewBox="0 0 20 20">
        <path d="M7.5 15a.5.5 0 0 1-.5-.5v-9a.5.5 0 0 1 .8-.4l6 4.5a.5.5 0 0 1 0 .8l-6 4.5a.5.5 0 0 1-.3.1zM8 6.5v7l4.667-3.5L8 6.5z" fill="currentColor"></path><path d="M19.5 2H.5a.5.5 0 0 0-.5.5v15a.5.5 0 0 0 .5.5h19a.5.5 0 0 0 .5-.5v-15a.5.5 0 0 0-.5-.5zM3 11H1V9h2v2zm0-3H1V6h2v2zm-2 4h2v2H1v-2zm3-9h12v14H4V3zm13 6h2v2h-2V9zm0-1V6h2v2h-2zm0 4h2v2h-2v-2zm2-7h-2V3h2v2zM3 3v2H1V3h2zM1 15h2v2H1v-2zm16 2v-2h2v2h-2z" fill="currentColor"></path>
    </symbol>
    <symbol id="cq-tests-movie_creation" viewBox="0 0 24 24">
        <path d="M18 3.984h3.984V18c0 1.078-.891 2.016-1.969 2.016H3.984c-1.078 0-1.969-.938-1.969-2.016V6c0-1.078.891-2.016 1.969-2.016h1.031l1.969 4.031h3L8.015 3.984h1.969L12 8.015h3l-2.016-4.031H15l2.016 4.031h3z" fill="currentColor"></path>
    </symbol>
    <symbol id="cq-tests-upload" viewBox="0 0 20 20">
        <path d="M17.5 19h-16C.673 19 0 18.327 0 17.5v-2a.5.5 0 0 1 1 0v2a.5.5 0 0 0 .5.5h16a.5.5 0 0 0 .5-.5v-2a.5.5 0 0 1 1 0v2c0 .827-.673 1.5-1.5 1.5z" fill="currentColor"></path><path d="M14.854 8.646l-5-5a.5.5 0 0 0-.707 0l-5 5a.5.5 0 0 0 .707.707L9 5.207V15.5a.5.5 0 0 0 1 0V5.207l4.146 4.146a.498.498 0 0 0 .708 0 .5.5 0 0 0 0-.707z" fill="currentColor"></path>
    </symbol>
    <symbol id="cq-text-align-center" viewBox="0 0 20 20">
        <path d="M17.5 5h-15a.5.5 0 0 1 0-1h15a.5.5 0 0 1 0 1zm-2 3h-11a.5.5 0 0 1 0-1h11a.5.5 0 0 1 0 1zm2 3h-15a.5.5 0 0 1 0-1h15a.5.5 0 0 1 0 1zm-2 3h-11a.5.5 0 0 1 0-1h11a.5.5 0 0 1 0 1zm2 3h-15a.5.5 0 0 1 0-1h15a.5.5 0 0 1 0 1z" fill="currentColor"></path>
    </symbol>
    <symbol id="cq-text-align-justify" viewBox="0 0 20 20">
        <path d="M17.5 5h-15a.5.5 0 0 1 0-1h15a.5.5 0 0 1 0 1zm0 3h-15a.5.5 0 0 1 0-1h15a.5.5 0 0 1 0 1zm0 3h-15a.5.5 0 0 1 0-1h15a.5.5 0 0 1 0 1zm0 3h-15a.5.5 0 0 1 0-1h15a.5.5 0 0 1 0 1zm0 3h-15a.5.5 0 0 1 0-1h15a.5.5 0 0 1 0 1z" fill="currentColor"></path>
    </symbol>
    <symbol id="cq-text-align-left" viewBox="0 0 20 20">
        <path d="M17.5 5h-15a.5.5 0 0 1 0-1h15a.5.5 0 0 1 0 1zm-4 3h-11a.5.5 0 0 1 0-1h11a.5.5 0 0 1 0 1zm4 3h-15a.5.5 0 0 1 0-1h15a.5.5 0 0 1 0 1zm-4 3h-11a.5.5 0 0 1 0-1h11a.5.5 0 0 1 0 1zm4 3h-15a.5.5 0 0 1 0-1h15a.5.5 0 0 1 0 1z" fill="currentColor"></path>
    </symbol>
    <symbol id="cq-text-align-right" viewBox="0 0 20 20">
        <path d="M17.5 5h-15a.5.5 0 0 1 0-1h15a.5.5 0 0 1 0 1zm0 3h-11a.5.5 0 0 1 0-1h11a.5.5 0 0 1 0 1zm0 3h-15a.5.5 0 0 1 0-1h15a.5.5 0 0 1 0 1zm0 3h-11a.5.5 0 0 1 0-1h11a.5.5 0 0 1 0 1zm0 3h-15a.5.5 0 0 1 0-1h15a.5.5 0 0 1 0 1z" fill="currentColor"></path>
    </symbol>
    <symbol id="cq-thumbnails" viewBox="0 0 20 20">
        <path fill="none" stroke="currentColor" d="M3.5 3.5h5v5h-5zm8 0h5v5h-5zm0 8h5v5h-5zm-8 0h5v5h-5z"></path>
    </symbol>
    <symbol id="cq-trash" viewBox="0 0 20 20">
        <path fill="none" stroke="currentColor" d="M6.5 3V1.5h7V3m-9 1v14.5h11V4"></path><path d="M8 7h1v9H8zm3 0h1v9h-1zM2 3h16v1H2z" fill="currentColor"></path>
    </symbol>
    <symbol id="cq-triangle-down" viewBox="0 0 20 20">
        <path d="M5 7h10l-5 5z" fill="currentColor"></path>
    </symbol>
    <symbol id="cq-triangle-left" viewBox="0 0 20 20">
        <path d="M12 5l-5 5 5 5z" fill="currentColor"></path>
    </symbol>
    <symbol id="cq-triangle-right" viewBox="0 0 20 20">
        <path d="M8 5l5 5-5 5z" fill="currentColor"></path>
    </symbol>
    <symbol id="cq-triangle-up" viewBox="0 0 20 20">
        <path d="M5 13l5-5 5 5z" fill="currentColor"></path>
    </symbol>
    <symbol id="cq-turn-refresh" viewBox="0 0 768 768">
        <path d="M565.5 202.5l75-75v225h-225L519 249c-34.5-34.5-82.5-57-135-57-106.5 0-192 85.5-192 192s85.5 192 192 192c84 0 156-52.5 181.5-127.5h66c-28.5 111-127.5 192-247.5 192-141 0-255-115.5-255-256.5s114-256.5 255-256.5c70.5 0 135 28.5 181.5 75z" fill="currentColor"></path>
    </symbol>
    <symbol id="cq-turn-sync" viewBox="0 0 768 768">
        <path d="M384 576v-96l127.5 127.5-127.5 129v-96C243 640.5 127.5 525 127.5 384c0-49.5 15-97.5 40.5-136.5l46.5 46.5c-15 27-22.5 57-22.5 90 0 106.5 85.5 192 192 192zm0-448.5c141 0 256.5 115.5 256.5 256.5 0 49.5-15 97.5-40.5 136.5L553.5 474c15-27 22.5-57 22.5-90 0-106.5-85.5-192-192-192v96L256.5 160.5 384 31.5v96z" fill="currentColor"></path>
    </symbol>
    <symbol id="cq-tv" viewBox="0 0 20 20">
        <path d="M7 16h6v1H7z" fill="currentColor"></path><path fill="none" stroke="currentColor" d="M.5 3.5h19v11H.5z"></path>
    </symbol>
    <symbol id="cq-unlock" viewBox="0 0 20 20">
        <path fill="none" stroke="currentColor" d="M3.5 8.5h13v10h-13zm3 0V4.9C6.5 3 8.1 1.5 10 1.5s3.5 1.5 3.5 3.4"></path>
    </symbol>
    <symbol id="cq-upload" viewBox="0 0 20 20">
        <path fill="none" stroke="currentColor" d="M5 8l4.5-4.5L14 8"></path><path d="M3 17h13v1H3z" fill="currentColor"></path><path fill="none" stroke="currentColor" d="M9.5 15V4"></path>
    </symbol>
    <symbol id="cq-user-add" viewBox="0 0 24 24">
        <path d="M15 14c2.7 0 8 1.3 8 4v2H7v-2c0-2.7 5.3-4 8-4zm-9-4h3v2H6v3H4v-3H1v-2h3V7h2v3zm9 2c-2.2 0-4-1.8-4-4s1.8-4 4-4 4 1.8 4 4-1.8 4-4 4z" fill="currentColor"></path>
    </symbol>
    <symbol id="cq-user-admin" viewBox="0 0 24 24">
        <path d="M15 14c2.7 0 8 1.3 8 4v2H7v-2c0-2.7 5.3-4 8-4zm0-2c-2.2 0-4-1.8-4-4s1.8-4 4-4 4 1.8 4 4-1.8 4-4 4zM3 14H1l3-8h2l3 8H7l-.5-1.5h-3L3 14zm.9-3H6L5 7.8 3.9 11z" fill="currentColor"></path>
    </symbol>
    <symbol id="cq-user-contact-sheet" viewBox="0 0 24 24">
        <path d="M18 18v-.984c0-2.016-3.984-3.094-6-3.094S6 15 6 17.016V18h12zM12 6c-1.641 0-3 1.359-3 3s1.359 3 3 3 3-1.359 3-3-1.359-3-3-3zm6.984-3C20.062 3 21 3.938 21 5.016v13.969c0 1.078-.938 2.016-2.016 2.016H5.015c-1.125 0-2.016-.938-2.016-2.016V5.016C2.999 3.938 3.89 3 5.015 3h.984V.984h2.016V3h7.969V.984H18V3h.984z" fill="currentColor"></path>
    </symbol>
    <symbol id="cq-user-group copie" viewBox="0 0 24 24">
        <path d="M14.9 12c.5.7 1.4 1.2 2.3 1.2 1.6 0 2.9-1.3 2.9-2.9s-1.3-2.9-2.9-2.9h-.3c.1.2.1.4.1.6 0 1.7-.8 3.1-2.1 4zm8.1 5.6c0-1.5-2.2-2.4-4.1-2.7 1.2.8 2.1 1.8 2.1 3.2v1h2v-1.5zM5.1 14.8c-1.9.4-4.1 1.3-4.1 2.8V19h2v-1c0-1.3.8-2.4 2.1-3.2zM7 8c0-.2 0-.4.1-.5h-.3c-1.6 0-2.9 1.3-2.9 2.9s1.3 2.9 2.9 2.9c.9 0 1.8-.5 2.3-1.2C7.8 11.1 7 9.7 7 8zm9-.3c-.2-2-1.9-3.7-4-3.7S8.2 5.7 8 7.7V8c0 1.3.6 2.4 1.5 3.1.7.5 1.5.9 2.5.9s1.8-.3 2.5-.9c.9-.7 1.5-1.8 1.5-3.1v-.3zm.3 7c-1.5-.5-3.1-.7-4.3-.7s-2.8.2-4.3.7C5.7 15.4 4 16.5 4 18v2h16v-2c0-1.5-1.7-2.6-3.7-3.3z" fill="currentColor"></path>
    </symbol>
    <symbol id="cq-user-group" viewBox="0 0 768 768">
        <path d="M288 415.5c21 0 48 3 76.5 9-66 36-76.5 84-76.5 111v72H64.5V528c0-75 148.5-112.5 223.5-112.5zm240 33c58.5 0 175.5 28.5 175.5 87v72h-351v-72c0-58.5 117-87 175.5-87zm-240-96c-52.5 0-96-43.5-96-96s43.5-96 96-96 96 43.5 96 96-43.5 96-96 96zM528 384c-43.5 0-79.5-36-79.5-79.5s36-81 79.5-81 79.5 37.5 79.5 81-36 79.5-79.5 79.5z" fill="currentColor"></path>
    </symbol>
    <symbol id="cq-user-no-sign" viewBox="0 0 24 24">
        <path d="M15 14c2.7 0 8 1.3 8 4v2H7v-2c0-2.7 5.3-4 8-4zm0-2c-2.2 0-4-1.8-4-4s1.8-4 4-4 4 1.8 4 4-1.8 4-4 4z" fill="currentColor"></path>
    </symbol>
    <symbol id="cq-user-question" viewBox="0 0 24 24">
        <path d="M15 14c2.7 0 8 1.3 8 4v2H7v-2c0-2.7 5.3-4 8-4zm0-2c-2.2 0-4-1.8-4-4s1.8-4 4-4 4 1.8 4 4-1.8 4-4 4zM4 13c0-1.3.2-1.9 1.5-2.8.5-.4.9-.8.9-1.4 0-1.1-.8-1.4-1.4-1.4-1.3 0-1.4 1-1.5 1.6h-2c0-2.4 1.8-3.3 3.4-3.3.8 0 3.6.2 3.6 3 0 1.1-.6 1.8-1.7 2.6-.6.4-.8.7-.8 1.7H4zm2 3H4v-2h2v2z" fill="currentColor"></path>
    </symbol>
    <symbol id="cq-user-user" viewBox="0 0 24 24">
        <path d="M12 14.016c2.672 0 8.016 1.313 8.016 3.984v2.016H3.985V18c0-2.672 5.344-3.984 8.016-3.984zM12 12c-2.203 0-3.984-1.781-3.984-3.984S9.797 3.985 12 3.985s3.984 1.828 3.984 4.031S14.203 12 12 12z" fill="currentColor"></path>
    </symbol>
    <symbol id="cq-user-users" viewBox="0 0 20 20">
        <circle fill="none" stroke="currentColor" stroke-width="1.1" cx="7.7" cy="8.6" r="3.5"></circle><path fill="none" stroke="currentColor" stroke-width="1.1" d="M1 18.1c.7-3.5 3.4-6 6.6-6 3.3 0 6.1 2.7 6.7 6.2M11.4 4c1.4-1.6 4-1.2 4.9.7.9 1.9-.6 4.2-2.7 4.2 2.9 0 5.2 2.4 5.6 5.2"></path>
    </symbol>
    <symbol id="cq-video-camera" viewBox="0 0 20 20">
        <path d="M18 6v8l-6-4z" fill="currentColor"></path><path d="M2 5h12v10H2z" fill="currentColor"></path>
    </symbol>
    <symbol id="cq-warning" viewBox="0 0 20 20">
        <circle cx="10" cy="14" r="1" fill="currentColor"></circle><circle fill="none" stroke="currentColor" stroke-width="1.1" cx="10" cy="10" r="9"></circle><path d="M10.97 7.72c-.12 1.82-.41 3.57-.41 3.57-.05.58-.29.71-.57.71-.3 0-.5-.13-.56-.71 0 0-.27-1.75-.4-3.57-.07-1.18 0-1.72 0-1.72 0-.55.43-.98.96-1 .54.01.98.44.98 1 0 0 .07.54 0 1.72z" fill="currentColor"></path>
    </symbol>
    <symbol id="cq-world" viewBox="0 0 768 768">
        <path d="M523.5 448.5h108c4.5-21 9-42 9-64.5s-4.5-43.5-9-64.5h-108c3 21 4.5 42 4.5 64.5s-1.5 43.5-4.5 64.5zm-57 177C525 606 576 564 606 511.5h-94.5c-10.5 40.5-25.5 78-45 114zm-7.5-177c3-21 4.5-42 4.5-64.5s-1.5-43.5-4.5-64.5H309c-3 21-4.5 42-4.5 64.5s1.5 43.5 4.5 64.5h150zM384 639c27-39 48-81 61.5-127.5h-123C336 558 357 600 384 639zM256.5 256.5c10.5-40.5 25.5-78 45-114C243 162 192 204 162 256.5h94.5zm-94.5 255c30 52.5 81 94.5 139.5 114-19.5-36-34.5-73.5-45-114H162zm-25.5-63h108c-3-21-4.5-42-4.5-64.5s1.5-43.5 4.5-64.5h-108c-4.5 21-9 42-9 64.5s4.5 43.5 9 64.5zM384 129c-27 39-48 81-61.5 127.5h123C432 210 411 168 384 129zm222 127.5c-30-52.5-81-94.5-139.5-114 19.5 36 34.5 73.5 45 114H606zm-222-192C561 64.5 703.5 207 703.5 384S561 703.5 384 703.5 64.5 561 64.5 384 207 64.5 384 64.5z" fill="currentColor"></path>
    </symbol>
</svg>
