<!-- Generated by IcoMoon.io -->
<svg version="1.1" xmlns="http://www.w3.org/2000/svg" width="768" height="768" viewBox="0 0 768 768">
<title></title>
<g id="icomoon-ignore">
</g>
<path d="M481.5 360c18-18 30-43.5 30-72 0-70.5-57-127.5-127.5-127.5s-127.5 57-127.5 127.5h63c0-34.5 30-64.5 64.5-64.5s64.5 30 64.5 64.5c0 18-7.5 33-19.5 45l-39 40.5c-22.5 24-37.5 55.5-37.5 90v16.5h63c0-48 15-66 37.5-90zM415.5 607.5v-63h-63v63h63zM384 64.5c177 0 319.5 142.5 319.5 319.5s-142.5 319.5-319.5 319.5-319.5-142.5-319.5-319.5 142.5-319.5 319.5-319.5z"></path>
</svg>
