<!-- Generated by IcoMoon.io -->
<svg version="1.1" xmlns="http://www.w3.org/2000/svg" width="768" height="768" viewBox="0 0 768 768">
<title></title>
<g id="icomoon-ignore">
</g>
<path d="M384 192c70.5 0 127.5 57 127.5 127.5 0 79.5-96 88.5-96 160.5h-63c0-103.5 96-96 96-160.5 0-34.5-30-63-64.5-63s-64.5 28.5-64.5 63h-63c0-70.5 57-127.5 127.5-127.5zM384 640.5c141 0 256.5-115.5 256.5-256.5s-115.5-256.5-256.5-256.5-256.5 115.5-256.5 256.5 115.5 256.5 256.5 256.5zM384 64.5c177 0 319.5 142.5 319.5 319.5s-142.5 319.5-319.5 319.5-319.5-142.5-319.5-319.5 142.5-319.5 319.5-319.5zM352.5 576v-64.5h63v64.5h-63z"></path>
</svg>
