<!-- Generated by IcoMoon.io -->
<svg version="1.1" xmlns="http://www.w3.org/2000/svg" width="768" height="768" viewBox="0 0 768 768">
<title></title>
<g id="icomoon-ignore">
</g>
<path d="M384 576v-96l127.5 127.5-127.5 129v-96c-141 0-256.5-115.5-256.5-256.5 0-49.5 15-97.5 40.5-136.5l46.5 46.5c-15 27-22.5 57-22.5 90 0 106.5 85.5 192 192 192zM384 127.5c141 0 256.5 115.5 256.5 256.5 0 49.5-15 97.5-40.5 136.5l-46.5-46.5c15-27 22.5-57 22.5-90 0-106.5-85.5-192-192-192v96l-127.5-127.5 127.5-129v96z"></path>
</svg>
