<?xml version="1.0" encoding="utf-8"?>
<!-- Generator: Adobe Illustrator 21.1.0, SVG Export Plug-In . SVG Version: 6.00 Build 0)  -->
<svg version="1.1" id="cq-images-image" xmlns="http://www.w3.org/2000/svg" xmlns:xlink="http://www.w3.org/1999/xlink" x="0px"
	 y="0px" viewBox="0 0 147.7 54.6" style="enable-background:new 0 0 147.7 54.6;" xml:space="preserve">
<path style="fill:none;stroke:#000000;stroke-width:3;stroke-linecap:round;" d="M81.7,1.2c21-0.1,43-0.1,64.3,0"/>
<path style="fill:none;stroke:#000000;stroke-width:3;stroke-linecap:round;" d="M81.7,14.3c21,0.2,43,0.2,64.3,0"/>
<path style="fill:none;stroke:#000000;stroke-width:3;stroke-linecap:round;" d="M81.7,27.4c21,0.5,43,0.5,64.3,0"/>
<path style="fill:none;stroke:#000000;stroke-width:3;stroke-linecap:round;" d="M81.7,40.9c16-0.2,32-0.2,48-0.1"/>
<path style="fill:none;stroke:#000000;stroke-width:3;stroke-linecap:round;" d="M1.4,1.2c21-0.1,43-0.1,64.3,0"/>
<path style="fill:none;stroke:#000000;stroke-width:3;stroke-linecap:round;" d="M1.4,40.8c21,0.2,43,0.2,64.3,0"/>
<path style="fill:none;stroke:#000000;stroke-width:3;stroke-linecap:round;" d="M1.4,54.5c21,0.2,43,0.2,64.3,0"/>
<path style="fill:none;stroke:#000000;stroke-width:3;stroke-linecap:round;" d="M1.4,27.4c21,0.5,43,0.5,64.3,0"/>
<path style="fill:none;stroke:#000000;stroke-width:3;stroke-linecap:round;" d="M1.4,14.1c21,0.5,43,0.5,64.3,0"/>
</svg>
