<!-- Generated by IcoMoon.io -->
<svg version="1.1" xmlns="http://www.w3.org/2000/svg" width="1040" height="1024" viewBox="0 0 1040 1024">
<title></title>
<g id="icomoon-ignore">
</g>
<path d="M851.328 946.784l-83.968-23.040-0.192-232.256 80.32 22.592 115.808-432.288-586.624-157.184-38.656 144.192h-66.176l59.616-222.464 710.176 190.272-190.304 710.176zM737.248 1024h-737.248v-735.264h737.248v735.264zM673.312 352.672h-609.376v447.52h609.376v-447.52zM251.168 671.776l73.056-118.144 73.056 73.632 100.448-151.264 105.056 260.288h-465.792l59.36-118.72 54.816 54.208zM207.488 546.752c-26.496 0-47.968-21.44-47.968-47.936s21.472-47.936 47.968-47.936 47.936 21.44 47.936 47.936-21.44 47.936-47.936 47.936z"></path>
</svg>
