<?xml version="1.0" encoding="utf-8"?>
<!-- Generator: Adobe Illustrator 20.0.0, SVG Export Plug-In . SVG Version: 6.00 Build 0)  -->
<svg version="1.1" id="Calque_1" xmlns="http://www.w3.org/2000/svg" xmlns:xlink="http://www.w3.org/1999/xlink" x="0px" y="0px"
	 viewBox="0 0 24 24" style="enable-background:new 0 0 24 24;" xml:space="preserve">
<title>person_add</title>
<path d="M15,14c2.7,0,8,1.3,8,4v2H7v-2C7,15.3,12.3,14,15,14L15,14z M15,12c-2.2,0-4-1.8-4-4s1.8-4,4-4s4,1.8,4,4S17.2,12,15,12z"/>
<g>
	<path d="M3,14H1l3-8h2l3,8H7l-0.5-1.5h-3L3,14z M3.9,11H6L5,7.8h0L3.9,11z"/>
</g>
</svg>
