<!-- Generated by IcoMoon.io -->
<svg version="1.1" xmlns="http://www.w3.org/2000/svg" width="768" height="768" viewBox="0 0 768 768">
<title></title>
<g id="icomoon-ignore">
</g>
<path d="M288 415.5c21 0 48 3 76.5 9-66 36-76.5 84-76.5 111v72h-223.5v-79.5c0-75 148.5-112.5 223.5-112.5zM528 448.5c58.5 0 175.5 28.5 175.5 87v72h-351v-72c0-58.5 117-87 175.5-87zM288 352.5c-52.5 0-96-43.5-96-96s43.5-96 96-96 96 43.5 96 96-43.5 96-96 96zM528 384c-43.5 0-79.5-36-79.5-79.5s36-81 79.5-81 79.5 37.5 79.5 81-36 79.5-79.5 79.5z"></path>
</svg>
